<svg width="54" height="60" viewBox="0 0 54 60" fill="none" xmlns="http://www.w3.org/2000/svg">
<path d="M11.9646 34.7327C11.9646 34.7327 2.3929 24.5836 0.531738 13.0991L5.58346 12.5649C6.3811 26.4532 12.7622 34.7327 12.7622 34.7327H11.9646Z" fill="url(#paint0_linear)"/>
<path d="M18.6116 34.733C18.6116 34.733 10.9043 20.7117 12.2304 7.49078L18.3457 8.29203C15.1391 23.8486 19.6751 34.733 19.6751 34.733L18.6116 34.733Z" fill="url(#paint1_linear)"/>
<path d="M11.9647 34.7332C8.99168 28.1894 8.0479 20.7335 10.0459 13.243C10.5906 11.2009 11.3401 9.32171 12.2305 7.49092C13.8312 7.33243 15.4664 7.39189 17.1118 7.83477C17.5684 7.95767 17.9131 8.12724 18.3458 8.29217C15.913 11.5104 14.149 15.2219 13.0435 19.3662C11.6351 24.6463 11.6055 29.7579 12.7623 34.7332C12.4964 34.7332 12.2305 34.7332 11.9647 34.7332Z" fill="url(#paint2_linear)"/>
<path d="M18.6116 34.7331C17.0416 25.3401 18.4476 15.586 23.5586 6.69346C24.9519 4.26922 26.5471 2.03505 28.3106 0C30.4119 0.348323 32.4875 1.07594 34.4409 2.20884C34.983 2.52321 35.5029 2.86138 36 3.22127C31.7905 6.49986 28.1313 10.637 25.3035 15.557C21.7007 21.8254 19.8929 27.9714 19.6751 34.7331C19.1433 34.7331 18.8775 34.7331 18.6116 34.7331Z" fill="url(#paint3_linear)"/>
<path d="M1.98356 28.315C0.705018 25.1882 0 21.7639 0 18.1741C0 16.4149 0.208595 14.7638 0.53176 13.0996C0.751406 13.0165 0.948544 12.938 1.13195 12.8649C1.99448 12.5211 2.55334 12.2983 3.72232 12.2983C4.11569 12.2983 5.05172 12.2983 5.58348 12.5654C4.31803 15.6785 3.72232 18.8771 3.72232 22.4474C3.72232 24.4002 3.93095 26.3041 4.32706 28.1377C3.70044 28.2595 3.0539 28.3232 2.39292 28.3232C2.25583 28.3232 2.11936 28.3205 1.98356 28.315Z" fill="url(#paint4_linear)"/>
<path d="M33.2414 39L29.8674 48H28.9125L26.5189 42.3557L24.1252 48H23.1194L20 39H21.4897L23.3104 44.4129C23.3952 44.6443 23.4716 44.8843 23.5395 45.1329C23.6159 45.3814 23.6838 45.6214 23.7433 45.8529C23.8281 45.6214 23.9173 45.3814 24.0106 45.1329C24.104 44.8843 24.2016 44.64 24.3035 44.4L25.9332 40.5557H27.2191L28.7979 44.3871C28.8998 44.6357 28.9974 44.8843 29.0908 45.1329C29.1841 45.3729 29.269 45.6043 29.3454 45.8271C29.4133 45.5957 29.4854 45.3557 29.5618 45.1071C29.6382 44.85 29.7231 44.5929 29.8165 44.3357L31.7645 39H33.2414Z" fill="black"/>
<path d="M42.5075 48L41.5525 45.84H36.8416L35.874 48H34.448L38.4714 39H40.0119L44.0098 48H42.5075ZM38.5096 42.1371L37.4401 44.5029H40.9541L39.8592 42.0857C39.7488 41.8114 39.6385 41.5414 39.5281 41.2757C39.4178 41.01 39.3074 40.7271 39.1971 40.4271C39.0783 40.7357 38.9637 41.0314 38.8533 41.3143C38.743 41.5886 38.6284 41.8629 38.5096 42.1371Z" fill="black"/>
<path d="M54 39L50.0912 44.3486V48H48.7162V44.4129L44.5527 39H46.3734L49.4292 43.1271L52.3448 39H54Z" fill="black"/>
<path d="M29.3278 51V55.9646C29.3278 56.7369 29.1538 57.4286 28.8058 58.0396C28.4578 58.6506 27.9697 59.1301 27.3416 59.4781C26.722 59.826 25.9962 60 25.1644 60C24.341 60 23.6153 59.826 22.9872 59.4781C22.3676 59.1301 21.8795 58.6506 21.523 58.0396C21.175 57.4286 21.001 56.7369 21.001 55.9646V51H22.376V55.8883C22.376 56.4314 22.5034 56.9109 22.758 57.3267C23.0127 57.7426 23.3479 58.0693 23.7639 58.3069C24.1883 58.5446 24.6551 58.6634 25.1644 58.6634C25.7076 58.6634 26.1914 58.5446 26.6159 58.3069C27.0487 58.0693 27.3883 57.7426 27.6344 57.3267C27.8891 56.9109 28.0164 56.4314 28.0164 55.8883V51H29.3278Z" fill="black"/>
<path d="M37.6873 51.0127C38.1966 51.0127 38.6592 51.1358 39.0752 51.3819C39.4996 51.6195 39.8391 51.9463 40.0937 52.3621C40.3569 52.7694 40.4884 53.232 40.4884 53.7496C40.4884 54.2758 40.3526 54.7553 40.081 55.1881C39.8094 55.6209 39.4486 55.9646 38.9988 56.2192C38.5489 56.4653 38.0566 56.5884 37.5218 56.5884H34.4279V59.9236H33.0528V51.0127H37.6873ZM37.4327 55.2645C37.7213 55.2645 37.9887 55.1966 38.2348 55.0608C38.481 54.925 38.6762 54.7426 38.8205 54.5134C38.9648 54.2843 39.037 54.0297 39.037 53.7496C39.037 53.4866 38.9648 53.2489 38.8205 53.0368C38.6762 52.8246 38.481 52.6549 38.2348 52.5276C37.9887 52.4003 37.7213 52.3366 37.4327 52.3366H34.4279V55.2645H37.4327Z" fill="black"/>
<defs>
<linearGradient id="paint0_linear" x1="6.75154" y1="12.7369" x2="6.75154" y2="34.7692" gradientUnits="userSpaceOnUse">
<stop offset="0.135417" stop-color="#002993"/>
<stop offset="1" stop-color="#326BFF"/>
</linearGradient>
<linearGradient id="paint1_linear" x1="19.3701" y1="8.77226" x2="12.7924" y2="33.2102" gradientUnits="userSpaceOnUse">
<stop offset="0.135417" stop-color="#6B1323"/>
<stop offset="1" stop-color="#EC4865"/>
</linearGradient>
<linearGradient id="paint2_linear" x1="15.8414" y1="7.49283" x2="8.70232" y2="34.0165" gradientUnits="userSpaceOnUse">
<stop stop-color="#EC4865"/>
<stop offset="0.635417" stop-color="#D83451"/>
<stop offset="1" stop-color="#730418"/>
</linearGradient>
<linearGradient id="paint3_linear" x1="31.183" y1="0.103856" x2="24.9475" y2="35.1555" gradientUnits="userSpaceOnUse">
<stop stop-color="#F9F9F9"/>
<stop offset="0.625" stop-color="#D2D2D2"/>
<stop offset="1" stop-color="#565656"/>
</linearGradient>
<linearGradient id="paint4_linear" x1="4.08901" y1="12.3463" x2="-0.035895" y2="27.9387" gradientUnits="userSpaceOnUse">
<stop stop-color="#326BFF"/>
<stop offset="0.635417" stop-color="#4F7BED"/>
<stop offset="1" stop-color="#002481"/>
</linearGradient>
</defs>
</svg>
