<svg width="360" height="278" viewBox="0 0 360 278" fill="none" xmlns="http://www.w3.org/2000/svg">
<path d="M0.0057772 238.196C0.201612 239.755 8.41037 244.044 12.4903 245.994C13.551 245.994 15.8194 245.555 16.4069 243.801C17.1413 241.607 17.3861 235.515 19.0997 233.809C20.8132 232.103 31.3394 229.666 43.3343 229.666C55.3292 229.666 306.733 229.179 318.483 229.666C327.883 230.056 338.882 233.728 343.207 235.515L346.145 245.994C347.776 245.425 351.922 243.898 355.447 242.338C359.853 240.389 360.832 238.196 359.363 232.347C357.895 226.498 351.53 205.785 349.572 203.104C347.613 200.423 308.446 201.642 288.618 201.642C268.79 201.642 72.9544 201.885 68.3033 201.642C63.6522 201.398 17.6309 201.398 12.4903 203.104C7.3496 204.81 -0.239017 236.246 0.0057772 238.196Z" fill="#F2F2F2"/>
<path fill-rule="evenodd" clip-rule="evenodd" d="M27.4603 27.3595C28.4308 25.9008 30.4054 25.5015 31.8707 26.4677C37.9196 30.4561 53.7771 38.3692 68.546 38.3692H282.251C290.571 38.3692 297.112 38.1789 303.468 36.7696C309.756 35.3755 316.003 32.7524 323.56 27.6978C325.019 26.722 326.996 27.1083 327.976 28.5606C328.957 30.0129 328.568 31.9812 327.11 32.957C319 38.3811 312.028 41.3629 304.852 42.9541C297.745 44.53 290.577 44.7052 282.251 44.7052H68.546C51.9814 44.7052 34.8732 36.0472 28.3561 31.7501C26.8908 30.784 26.4897 28.8182 27.4603 27.3595Z" fill="url(#paint0_linear)"/>
<path fill-rule="evenodd" clip-rule="evenodd" d="M12.7354 207.247C12.7354 205.497 14.1602 204.079 15.9177 204.079H340.27C342.027 204.079 343.452 205.497 343.452 207.247C343.452 208.997 342.027 210.415 340.27 210.415H15.9177C14.1602 210.415 12.7354 208.997 12.7354 207.247Z" fill="url(#paint1_linear)"/>
<path fill-rule="evenodd" clip-rule="evenodd" d="M187.028 41.7777V204.077H170.871V41.7777H187.028Z" fill="url(#paint2_linear)"/>
<g opacity="0.1">
<path d="M342.287 235.148C342.115 234.731 341.858 234.284 341.492 233.81C339.044 230.642 323.622 226.743 309.424 226.743C306.883 226.743 298.472 226.759 286.164 226.782H286.163C229.69 226.887 91.1938 227.144 61.4475 226.743C25.218 226.256 19.343 229.668 17.8742 232.348C16.7346 234.428 16.731 239.274 16.8807 241.639C16.9403 241.289 16.9997 240.922 17.0608 240.543C17.4753 237.977 17.9664 234.937 19.0981 233.81C20.8117 232.105 31.3378 229.668 43.3327 229.668C45.2641 229.668 53.4026 229.655 65.7482 229.636C130.075 229.536 308.623 229.259 318.481 229.668C327.275 230.032 337.468 233.269 342.287 235.148Z" fill="black"/>
<path d="M17.8742 208.71H342.226L342.96 218.214C340.104 216.508 330.182 212.999 313.34 212.609C296.131 212.211 138.897 212.464 73.2414 212.569L73.2362 212.569C58.5776 212.593 48.4848 212.609 45.5359 212.609C29.3795 212.609 20.8116 214.802 19.3429 217.727C18.168 220.066 17.8742 212.69 17.8742 208.71Z" fill="black"/>
</g>
<path fill-rule="evenodd" clip-rule="evenodd" d="M24.7144 35.0827C22.8092 36.5639 21.3032 38.9811 21.3032 43.2432V246.726C19.8345 248.189 12.9802 248.189 11.5115 246.726V43.2432C11.5115 36.2955 14.167 30.9146 18.6876 27.4001C23.0237 24.0291 28.5547 22.7731 33.7877 22.7731H327.785C334.848 22.7731 340.414 24.6527 344.038 28.9156C347.517 33.0084 348.348 38.3342 348.348 43.2432V246.726C346.879 248.189 340.025 248.189 338.556 246.726V43.2432C338.556 39.1357 337.796 36.6633 336.563 35.2121C335.474 33.931 333.207 32.5208 327.785 32.5208H33.7877C29.9633 32.5208 26.8042 33.458 24.7144 35.0827Z" fill="#C1C1C1"/>
<rect x="13.7145" y="41.7777" width="5.38547" height="204.702" fill="url(#paint3_linear)"/>
<rect x="29.3801" y="31.0568" width="5.36122" height="301.097" transform="rotate(-90 29.3801 31.0568)" fill="url(#paint4_linear)"/>
<rect x="340.759" y="41.7777" width="5.38547" height="204.702" fill="url(#paint5_linear)"/>
<path fill-rule="evenodd" clip-rule="evenodd" d="M21.5489 35.1251C20.1389 37.1577 19.9853 40.1087 20.0803 41.7794H13.7154C13.5656 39.1448 14.3915 35.1506 16.7146 31.8017C19.1554 28.283 23.0781 25.6957 29.3823 25.6957L29.3822 31.5443C24.9154 31.5443 22.8411 33.2623 21.5489 35.1251Z" fill="url(#paint6_radial)"/>
<path fill-rule="evenodd" clip-rule="evenodd" d="M338.794 35.1251C340.291 37.1577 340.454 40.1087 340.353 41.7794H347.108C347.267 39.1448 346.391 35.1506 343.925 31.8017C341.335 28.283 337.171 25.6957 330.48 25.6957L330.481 31.5443C335.221 31.5443 337.423 33.2623 338.794 35.1251Z" fill="url(#paint7_radial)"/>
<path d="M149.408 131.345C147.104 129.248 143.896 125.892 141.027 122.69C140.134 122.479 138.998 122.209 138.341 122.045C138.195 122.009 138.04 121.963 137.878 121.916C136.758 121.587 135.285 121.155 134.03 122.903C133.455 124.048 131.874 124.906 130.724 125.479C129.574 126.051 129.143 127.768 128.568 131.345C127.994 134.922 124.544 141.503 123.395 142.934C122.845 143.617 120.655 147.078 118.298 150.802C117.322 152.343 116.318 153.93 115.39 155.383C116.122 155.634 116.915 156.088 117.358 156.382C118.029 155.476 119.543 153.578 120.233 153.235C120.709 152.998 121.578 153.156 122.291 153.371C123.981 150.989 125.329 149.059 125.981 148.084C128.568 144.221 138.198 131.488 139.204 130.2C140.21 128.912 141.791 128.912 146.102 131.202C148.919 132.697 153.33 135.475 157.293 138.019C153.817 135.174 150.905 132.708 149.408 131.345Z" fill="#848484"/>
<path d="M110.728 163.072C111.518 163.29 112.289 163.557 112.616 163.679L114.772 160.388C114.58 160.293 114.024 159.902 113.334 159.101C113.266 159.021 113.2 158.943 113.136 158.867C112.617 159.652 112.19 160.279 111.897 160.674C111.352 161.41 110.979 162.244 110.728 163.072Z" fill="#848484"/>
<path d="M178.074 153.796C179.468 155.573 180.345 157.34 180.307 158.958C180.163 165.11 172.977 175.554 168.953 181.277C166.568 184.669 158.932 195.047 151.193 205.143C151.221 205.153 151.249 205.162 151.276 205.17C154.725 206.171 157.312 203.024 160.761 198.732C161.682 197.585 162.921 195.919 164.292 194.075L164.292 194.075C168.053 189.015 172.806 182.621 174.702 181.992C176.047 181.546 176.848 181.912 177.71 182.305C178.508 182.669 179.358 183.057 180.738 182.851C182.035 182.657 182.98 182.172 183.905 181.699C185.03 181.122 186.124 180.562 187.78 180.562C188.429 180.562 189.541 180.768 190.9 181.097C187.036 175.737 184.05 170.897 183.182 167.685C182.463 165.539 181.888 162.964 191.517 154.093C192.332 153.343 193.155 152.612 193.981 151.901C191.475 153.003 188.389 154.408 187.206 154.952C186.9 155.092 186.633 155.24 186.379 155.381C185.081 156.1 184.13 156.627 180.163 154.952C179.646 154.733 178.936 154.336 178.074 153.796Z" fill="#848484"/>
<path d="M226.153 138.355C225.701 137.679 225.254 137.11 224.813 136.636C226.304 135.789 227.353 135.134 227.734 134.778C229.126 133.48 232.58 129.369 235.257 126.102C237.91 128.839 243.23 134.353 243.687 134.922C244.262 135.637 248.286 139.929 250.729 141.932C251.116 142.249 251.543 142.574 251.993 142.916L251.994 142.917C254.387 144.736 257.447 147.063 258.777 151.518C260.358 156.812 262.227 167.542 262.658 172.12C262.899 174.678 262.873 177.385 262.787 179.305C260.856 177.53 256.538 173.027 254.466 170.833C254.658 170.737 255.185 170.489 255.76 170.26C256.334 170.031 256.67 169.306 256.766 168.973C256.334 168.066 255.271 166.254 254.466 166.254C253.661 166.254 251.927 167.017 251.161 167.399L248.43 164.251C248.717 164.013 249.378 163.45 249.723 163.107L251.161 161.676C250.634 160.77 249.436 158.958 248.861 158.958C248.286 158.958 246.609 160.007 245.843 160.531C245.268 159.721 243.975 157.985 243.4 157.527C242.854 157.092 241.315 157.311 240.504 157.497C245.523 163.938 250.538 170.177 253.316 173.265C247.136 166.397 229.89 143.935 226.153 138.355Z" fill="#848484"/>
<path d="M126.7 110.17C125.551 112.231 122.485 112.65 121.095 112.603C120.941 112.553 120.783 112.502 120.623 112.45C119.972 110.759 118.975 109.21 118.077 108.453C116.209 106.88 97.9565 96.0062 96.2318 95.1478C94.5072 94.2894 92.7826 94.7186 90.4831 96.0062C90.2759 96.1222 90.0443 96.301 89.7918 96.5329C88.4479 93.8455 87.7719 91.3002 88.0399 90.8556C88.3566 90.3302 90.4562 87.5668 92.2323 85.2293L92.2326 85.229C92.8747 84.3839 93.4745 83.5945 93.9324 82.9866C95.657 80.6975 105.286 68.9656 107.586 66.5333C109.885 64.1011 118.652 56.2322 124.257 51.7969C129.862 47.3617 137.335 43.4988 139.779 42.9265C141.733 42.4687 149.599 42.7357 153.288 42.9265C154.582 44.1188 157.801 47.2473 160.33 50.2232C163.492 53.943 168.522 60.8105 170.966 64.9596C171.258 65.4555 171.603 66.0433 171.986 66.6952C174.808 71.4983 179.675 79.7815 180.307 80.4114C180.882 80.9837 182.846 84.4651 183.757 86.1342C185.194 84.9897 188.614 82.0996 190.799 79.696C193.529 76.6915 201.578 65.675 201.865 64.9596C202.153 64.2442 207.614 56.2322 208.764 55.2307C209.683 54.4295 213.458 49.5555 215.231 47.2186C216.668 47.0279 220.204 46.8467 222.848 47.6479C226.154 48.6494 229.315 50.7954 237.076 56.2322C244.057 61.1225 244.875 64.0449 245.492 66.2489C245.561 66.4952 245.627 66.7325 245.699 66.9626C246.274 68.7939 247.663 72.0178 248.286 73.4008L252.167 78.5514C252.55 79.4099 253.374 81.2698 253.604 81.8421C253.821 82.3829 254.778 83.169 255.356 83.644C255.542 83.7974 255.69 83.9183 255.76 83.9882C255.99 84.2171 259.113 86.7542 260.646 87.9942L263.952 90.9987L262.514 97.7231L245.699 112.03L237.507 123.333C235.016 126.433 229.574 133.062 227.735 134.779C227.353 135.134 226.305 135.789 224.813 136.636C221.612 133.2 218.676 134.77 215.518 136.782C215.015 137.103 214.37 137.5 213.606 137.969C209.386 140.566 201.55 145.388 193.981 151.901C191.476 153.003 188.389 154.408 187.206 154.952C186.9 155.092 186.633 155.24 186.379 155.381C185.081 156.1 184.131 156.627 180.164 154.952C179.646 154.733 178.936 154.336 178.074 153.796C174.249 148.92 166.53 143.965 163.128 141.781L162.917 141.646C162.214 141.194 161.421 140.682 160.568 140.131L160.568 140.131C159.547 139.471 158.439 138.755 157.294 138.02C153.817 135.175 150.906 132.708 149.408 131.345C144.378 126.767 135.036 116.179 134.317 114.319C133.672 112.649 133.722 108.901 133.739 107.637C133.74 107.578 133.741 107.524 133.741 107.477C133.742 107.408 133.742 107.352 133.742 107.309C133.742 106.594 134.461 105.735 135.036 105.306C135.611 104.877 136.329 103.875 136.329 102.731C136.329 101.586 135.755 101.443 133.742 101.872C132.133 102.216 129.91 103.827 129 104.591C128.712 105.592 127.85 108.11 126.7 110.17Z" fill="#F2F2F2"/>
<path d="M162.629 39.9201C157.8 40.6069 155.155 42.2093 154.437 42.9246L157.742 46.2153C161.096 50.4597 168.234 59.664 169.958 62.5255C171.683 65.3869 179.971 78.5018 183.899 84.7016C185.24 83.7955 188.153 81.6113 189.073 80.1233C190.223 78.2634 202.439 63.3839 204.595 59.664C206.319 56.6881 212.499 50.1259 215.373 47.2168C214.511 46.3583 212.442 44.4412 211.062 43.64C209.337 42.6385 206.894 41.9231 202.439 41.2078C197.983 40.4924 168.665 39.0617 162.629 39.9201Z" fill="#1A1916"/>
<path d="M153.096 42.915L154.726 41.9233C157.217 44.5463 163.061 51.0513 166.511 56.0875C170.822 62.3826 181.889 79.9805 182.895 81.6974C183.095 82.0714 183.252 82.3934 183.383 82.6631C184.005 83.9409 184.057 84.0482 185.482 82.985C187.206 81.6974 196.979 69.2501 199.135 66.3887C200.185 64.9946 202.531 61.665 204.878 58.3354C207.348 54.8306 209.818 51.3257 210.776 50.0784C212.271 48.1327 213.986 46.4063 214.656 45.7863L216.259 47.1159C215.854 47.1448 215.505 47.1807 215.231 47.217C213.459 49.5539 209.684 54.4279 208.764 55.2291C207.614 56.2306 202.153 64.2426 201.865 64.958C201.578 65.6733 193.53 76.6899 190.799 79.6944C188.615 82.098 185.194 84.9881 183.757 86.1326C182.847 84.4635 180.883 80.982 180.308 80.4098C179.675 79.7799 174.808 71.4967 171.986 66.6936C171.603 66.0417 171.258 65.4538 170.966 64.958C168.523 60.8089 163.493 53.9414 160.331 50.2216C157.801 47.2457 154.582 44.1172 153.289 42.9249C153.225 42.9216 153.161 42.9183 153.096 42.915Z" fill="#9A9A9A"/>
<path d="M113.967 60.554C115.75 60.3817 118.362 60.3301 121.096 60.8104C125.983 61.6689 137.911 67.6779 140.355 69.9671C142.496 71.9731 143.754 74.7483 144.226 75.7891C144.292 75.936 144.343 76.0484 144.379 76.1192C144.609 76.577 143.037 83.3681 142.223 86.7065C147.876 86.0388 161.711 84.8465 171.829 85.4188C176.968 85.7095 181.253 86.2128 185.06 86.66C190.621 87.3132 195.162 87.8465 199.854 87.4218C206.178 86.8496 214.945 86.325 218.538 86.1342C220.55 81.6036 225.35 72.0273 228.454 69.9671C232.335 67.3918 235.64 66.6764 239.664 67.821C242.48 68.6219 245.501 69.919 247.112 70.6784C246.57 69.3753 246.014 67.9617 245.7 66.9626C245.628 66.7325 245.562 66.4952 245.493 66.2489C244.876 64.0449 244.058 61.1225 237.077 56.2322C229.317 50.7954 226.155 48.6494 222.849 47.6479C220.205 46.8467 216.669 47.0279 215.232 47.2186C213.46 49.5555 209.685 54.4295 208.765 55.2307C207.615 56.2322 202.154 64.2442 201.866 64.9596C201.579 65.675 193.531 76.6915 190.8 79.696C188.615 82.0996 185.195 84.9897 183.758 86.1342C182.848 84.4651 180.883 80.9837 180.308 80.4114C179.676 79.7815 174.809 71.4983 171.987 66.6952C171.604 66.0433 171.259 65.4555 170.967 64.9596C168.524 60.8105 163.493 53.943 160.332 50.2232C157.802 47.2473 154.583 44.1188 153.289 42.9265C149.601 42.7357 141.734 42.4687 139.78 42.9265C137.337 43.4988 129.863 47.3617 124.258 51.7969C121.243 54.1826 117.313 57.5619 113.967 60.554Z" fill="#C1C1C1"/>
<path opacity="0.1" d="M96.3545 95.2105C96.3072 95.1855 96.2662 95.1644 96.2318 95.1473C94.5072 94.2888 92.7825 94.7181 90.483 96.0057C90.2759 96.1217 90.0442 96.3004 89.7918 96.5323C88.4479 93.845 87.7719 91.2997 88.0399 90.855C88.3566 90.3297 90.4562 87.5663 92.2323 85.2288C92.8745 84.3835 93.4744 83.594 93.9324 82.9861C95.657 80.6969 105.286 68.965 107.586 66.5328C107.828 66.2765 108.142 65.9599 108.517 65.5933C103.983 71.9136 98.7141 80.9953 97.238 89.5674C96.8808 91.6417 96.5898 93.5186 96.3545 95.2105Z" fill="black"/>
<path d="M251.018 138.784C249.753 138.669 248.479 138.069 248 137.782C250.204 137.115 254.726 135.751 255.186 135.636C255.646 135.522 258.731 134.73 260.216 134.349L263.09 135.35C262.659 135.684 261.682 136.38 261.222 136.495C260.647 136.638 254.755 140.358 253.749 140.358C252.743 140.358 252.024 140.644 252.024 140.358C252.024 140.129 252.791 139.213 253.174 138.784C252.982 138.832 252.283 138.898 251.018 138.784Z" fill="#848484"/>
<path d="M265.103 141.645C264.643 140.844 264.911 137.305 265.103 135.636L266.54 135.922C267.21 136.542 268.638 137.782 268.983 137.782H272.145C272.432 137.782 273.294 138.069 273.582 138.212C273.812 138.326 275.977 138.641 277.031 138.784H278.468C277.893 139.213 276.629 140.129 276.169 140.358C275.594 140.644 271.282 142.647 268.983 142.933C266.683 143.219 265.677 142.647 265.103 141.645Z" fill="#848484"/>
<path opacity="0.2" d="M121.095 112.601C122.484 112.649 125.55 112.229 126.7 110.169C127.85 108.109 128.712 105.591 129 104.589C129.91 103.826 132.133 102.214 133.742 101.871C135.754 101.442 136.329 101.585 136.329 102.73C136.329 103.874 135.611 104.876 135.036 105.305C134.461 105.734 133.742 106.592 133.742 107.308C133.742 107.381 133.741 107.492 133.739 107.636C133.722 108.9 133.672 112.648 134.317 114.318C135.036 116.178 144.378 126.766 149.408 131.344C150.905 132.707 153.818 135.174 157.294 138.019C158.439 138.754 159.547 139.47 160.568 140.13C161.421 140.681 162.214 141.193 162.917 141.645L163.128 141.78C166.53 143.964 174.249 148.919 178.074 153.795C178.936 154.335 179.646 154.732 180.163 154.951C184.13 156.626 185.081 156.099 186.379 155.38C186.633 155.239 186.9 155.091 187.206 154.951C188.389 154.407 191.475 153.002 193.981 151.9C201.55 145.387 209.386 140.565 213.606 137.968C214.369 137.499 215.014 137.102 215.518 136.781C218.676 134.769 221.611 133.199 224.813 136.635C226.304 135.788 227.353 135.133 227.734 134.778C229.574 133.061 235.016 126.432 237.507 123.332L245.699 112.029L251.223 107.329C247.086 104.76 241.827 101.517 241.1 101.156C239.95 100.583 236.645 98.7235 232.908 96.4343C229.171 94.1452 222.848 85.2747 222.704 82.6994C222.589 80.6392 224.189 75.3551 225.004 72.9705C224.764 73.3521 224.141 74.2868 223.566 74.9735C222.848 75.832 221.411 76.1181 219.111 74.9735C217.272 74.0579 215.854 72.0167 215.374 71.1106C215.135 71.4444 214.8 72.6844 215.374 74.9735C216.093 77.835 218.824 87.1347 220.405 90.2822C221.272 92.0087 223.393 95.3708 225.25 98.3146L225.25 98.3149C226.779 100.738 228.128 102.877 228.453 103.588C229.028 104.847 231.663 114.891 232.908 119.755C232.717 120.9 232.017 123.532 230.752 124.906C229.496 126.27 225.608 126.912 223.054 127.333C222.395 127.442 221.824 127.536 221.411 127.624C219.399 128.053 215.374 130.342 214.081 131.916C212.788 133.49 208.476 136.781 200.571 140.071C194.085 142.772 189.05 141.907 186.738 141.51C186.232 141.423 185.857 141.359 185.625 141.359C184.951 141.359 184.472 140.155 184.005 138.981C183.576 137.902 183.157 136.849 182.607 136.781C181.894 136.692 181.291 137.648 180.697 138.593C180.332 139.171 179.971 139.745 179.589 140.071C179.45 140.19 179.317 140.313 179.184 140.437C178.352 141.21 177.527 141.976 175.421 141.359C174.525 141.097 173.435 140.045 172.004 138.664C169.532 136.278 166.04 132.908 160.761 130.915C152.426 127.767 147.108 121.043 146.677 117.18C146.246 113.317 145.383 108.882 144.665 107.165C144.218 106.096 144.605 104.696 145.066 103.031C145.345 102.021 145.652 100.914 145.815 99.725C146.16 97.2069 146.533 93.6206 146.677 92.1422C146.437 92.8575 145.843 94.5172 145.383 95.4328C144.924 96.3485 142.701 97.722 141.647 98.2943V88.4223C141.647 85.4464 143.371 78.9796 144.234 76.1181C143.85 76.9289 142.797 79.0368 141.647 80.9826C140.21 83.4148 135.179 89.853 132.449 92.1422C130.903 93.4383 127.606 94.6885 124.019 96.0487C121.271 97.0909 118.353 98.1976 115.921 99.4389C113.87 100.486 112.543 102.351 111.711 104.337C114.874 106.282 117.437 107.913 118.077 108.452C118.975 109.209 119.972 110.758 120.622 112.449C120.783 112.501 120.941 112.552 121.095 112.601Z" fill="black"/>
<path fill-rule="evenodd" clip-rule="evenodd" d="M241.82 102.586C241.436 102.253 240.469 101.642 239.664 101.871C238.658 102.157 228.023 107.165 227.304 108.023C226.585 108.882 226.154 110.455 226.729 112.172C227.304 113.889 234.634 127.624 234.921 127.91C235.007 127.996 235.159 128.018 235.348 128.044C235.787 128.106 236.43 128.197 236.933 129.198C237.508 130.342 239.28 132.632 240.095 133.633L239.089 134.492C239.903 135.827 241.848 138.555 243.113 138.784C244.336 139.005 248.481 138.114 251.029 137.566C251.775 137.406 252.384 137.275 252.742 137.21C254.007 136.981 258.156 135.684 260.072 135.064C260.79 135.159 262.314 135.407 262.659 135.636C262.881 135.784 263.488 135.894 264.101 136.005C264.675 136.108 265.255 136.213 265.533 136.352C266.108 136.638 268.12 137.639 268.407 138.211C268.637 138.669 270.42 138.784 271.282 138.784L272.432 138.211C272.671 138.498 273.323 139.127 274.012 139.356C274.618 139.557 275.507 139.476 276.231 139.409C276.539 139.381 276.817 139.356 277.031 139.356C277.749 139.356 280.192 139.356 280.624 138.784C280.71 138.669 281.147 138.126 281.8 137.313C284.412 134.062 290.483 126.508 291.402 124.906C292.127 123.643 292.738 120.787 293.199 118.634C293.468 117.372 293.686 116.352 293.846 116.035C294.277 115.177 294.852 113.317 294.995 112.745C295.105 112.309 295.048 110.795 295.014 109.907C295.004 109.63 294.995 109.413 294.995 109.311C294.995 108.882 294.852 105.591 293.846 104.446C292.84 103.302 290.684 99.582 290.828 97.722C290.845 97.4927 290.867 97.2111 290.893 96.8911C291.071 94.6153 291.402 90.392 291.402 89.1377C291.402 87.707 291.259 85.2748 288.816 83.9871C288.209 83.6675 287.612 83.348 287.043 83.0437C285.319 82.122 283.859 81.3408 283.21 81.1257C282.348 80.8395 276.599 81.1257 273.15 82.1272C269.701 83.1287 264.958 84.8456 264.671 85.1317C264.383 85.4179 260.503 89.1377 260.072 89.1377C259.701 89.1377 258.372 90.5146 257.826 91.0813C257.737 91.1733 257.669 91.2439 257.629 91.2838C257.485 91.4269 256.802 91.8919 256.12 92.3569C255.437 92.8219 254.754 93.2868 254.61 93.4299C254.381 93.6588 253.557 94.0022 253.173 94.1453L250.586 96.2914C249.916 96.3867 248.517 96.6347 248.287 96.8636C248.143 97.0067 247.82 97.2571 247.496 97.5075C247.173 97.7578 246.85 98.0082 246.706 98.1513C246.476 98.3802 245.46 98.819 244.981 99.0097L243.113 100.297L241.82 101.442V102.586ZM270.994 86.7056C271.857 89.1855 273.61 94.317 273.725 95.0038C273.869 95.8622 275.306 98.8667 275.737 99.1528C276.168 99.439 279.474 94.1453 280.336 92.4285C281.198 90.7116 282.779 86.5625 282.779 85.9902C282.779 85.4179 281.486 83.7011 279.33 83.8441C277.605 83.9586 275.45 84.6548 274.587 84.9887L270.994 86.7056ZM284.791 104.017V101.156C284.791 100.698 285.75 98.2944 286.229 97.1498C286.612 98.3897 287.407 101.184 287.522 102.443C287.637 103.702 287.57 105.543 287.522 106.306C286.612 105.686 284.791 104.361 284.791 104.017Z" fill="#F2F2F2"/>
<path opacity="0.1" d="M260.89 88.5875C260.482 88.9215 260.176 89.1391 260.072 89.1391C259.701 89.1391 258.372 90.516 257.826 91.0827C257.737 91.1746 257.669 91.2453 257.629 91.2852C257.485 91.4283 256.802 91.8933 256.119 92.3583C255.437 92.8233 254.754 93.2882 254.61 93.4313C254.381 93.6602 253.557 94.0036 253.173 94.1467L250.586 96.2928C249.916 96.3881 248.517 96.6361 248.287 96.865C248.143 97.0081 247.82 97.2585 247.496 97.5089C247.173 97.7592 246.85 98.0096 246.706 98.1527C246.476 98.3816 245.46 98.8204 244.981 99.0111L243.113 100.299L241.819 101.443V102.528L242.887 103.148C242.959 102.748 243.323 102.288 243.688 102.016L245.412 100.728L247.425 99.4403C248.191 98.9634 249.81 97.981 250.155 97.8666C250.371 97.795 250.946 97.5446 251.521 97.2943C252.095 97.0439 252.67 96.7935 252.886 96.722C253.317 96.5789 254.61 95.8635 255.042 95.5774C255.387 95.3485 256.814 94.6236 257.485 94.2898L260.072 93.4313L263.665 91.1422C263.952 91.4283 264.728 92.5443 265.533 94.719C266.338 96.8937 268.551 102.969 269.557 105.736L270.851 107.309L273.006 110.6C273.15 110.552 273.495 110.486 273.725 110.6C273.764 110.619 273.815 110.646 273.876 110.678C274.274 110.886 275.095 111.315 275.593 111.315H277.749L281.773 112.031C281.821 112.508 281.888 113.547 281.773 113.891C281.63 114.32 279.33 121.044 279.043 121.33C278.755 121.617 276.599 126.91 276.312 127.769C276.068 128.497 274.067 131.386 273.289 132.508C273.15 132.71 273.05 132.854 273.006 132.919C272.923 133.044 272.839 133.254 272.742 133.498C272.503 134.096 272.181 134.904 271.569 135.208C270.879 135.552 268.982 135.351 268.12 135.208L264.958 133.635C264.706 133.509 263.819 133.191 262.866 132.85L262.866 132.85C261.644 132.412 260.314 131.935 260.072 131.775C260.039 131.753 259.999 131.717 259.952 131.669C259.409 131.648 258.902 131.704 258.635 131.918C258.121 132.327 257.952 132.386 257.921 132.359L257.916 132.347C257.916 132.352 257.918 132.356 257.921 132.359L258.635 134.064C256.623 134.541 251.765 135.752 248.431 136.782C244.526 137.988 242.892 136.558 241.874 135.666C241.805 135.606 241.739 135.549 241.676 135.494C240.871 134.808 237.891 130.058 236.502 127.769C236.167 127.339 235.438 126.424 235.209 126.195C234.921 125.909 228.597 114.177 227.735 112.46C227.296 111.585 227.066 109.966 226.957 108.537C226.465 109.437 226.255 110.757 226.729 112.174C227.304 113.891 234.634 127.625 234.921 127.912C235.007 127.998 235.159 128.019 235.348 128.046C235.787 128.108 236.43 128.199 236.933 129.199C237.508 130.344 239.28 132.633 240.095 133.635L239.089 134.493C239.903 135.828 241.848 138.556 243.113 138.785C244.336 139.006 248.481 138.115 251.029 137.568C251.775 137.407 252.384 137.276 252.742 137.211C254.007 136.982 258.156 135.685 260.072 135.065C260.79 135.161 262.314 135.409 262.659 135.638C262.881 135.785 263.488 135.895 264.101 136.006C264.675 136.11 265.255 136.215 265.533 136.353C266.108 136.639 268.12 137.641 268.407 138.213C268.637 138.671 270.42 138.785 271.282 138.785L272.432 138.213C272.464 138.251 272.503 138.296 272.549 138.344C272.504 137.917 272.524 137.366 272.719 136.782C273.064 135.752 273.438 137.211 273.581 138.07C273.725 137.784 274.041 137.126 274.156 136.782C274.271 136.439 275.641 133.682 276.312 132.347L280.049 125.766C281.055 124.239 283.124 121.13 283.354 120.901C283.584 120.672 286.42 116.037 287.81 113.748L288.241 113.032C288.097 112.651 287.81 111.315 287.81 109.026C287.81 108.187 287.711 106.868 287.564 105.409C287.552 105.773 287.536 106.086 287.522 106.308C286.612 105.688 284.791 104.362 284.791 104.019V101.157C284.791 100.699 285.749 98.2958 286.229 97.1512C286.357 97.5669 286.532 98.1574 286.712 98.8062C286.566 97.9109 286.443 97.2922 286.372 97.1512C286.25 96.9065 285.811 95.6944 285.238 94.1072L285.238 94.1068C284.47 91.9814 283.458 89.1837 282.636 87.1362C282.607 87.0649 282.575 86.996 282.541 86.9294C282.066 88.404 280.993 91.1223 280.336 92.4299C279.474 94.1467 276.168 99.4404 275.737 99.1543C275.306 98.8681 273.869 95.8636 273.725 95.0052C273.61 94.3184 271.857 89.1869 270.994 86.707L272.658 85.9122C271.899 86.1105 271.346 86.3024 271.138 86.4208C270.579 86.7387 268.468 87.719 266.357 88.6993C264.668 89.4835 262.978 90.2678 262.084 90.713C261.986 90.7616 261.891 90.8092 261.798 90.8555L261.796 90.8564C259.977 91.7652 259.087 92.2099 259.497 90.713C259.77 90.3502 260.293 89.5416 260.89 88.5875Z" fill="black"/>
<path opacity="0.1" d="M280.512 81.0549C282.008 81.7059 283.617 82.5833 284.073 83.4149C284.935 84.9887 288.528 92.7146 289.534 95.576C290.54 98.4374 291.546 102.873 291.546 103.302C291.546 103.731 292.696 107.308 292.984 107.88C293.168 108.248 293.116 108.733 293.054 109.299C293.02 109.614 292.984 109.954 292.984 110.312C292.984 111.314 284.504 124.477 284.073 124.763C283.857 124.906 283.354 125.621 282.851 126.336C282.348 127.052 281.845 127.767 281.63 127.91C281.392 128.068 280.718 129.181 280.089 130.221C279.576 131.068 279.093 131.867 278.899 132.059C278.468 132.489 277.749 134.492 277.606 134.921C277.491 135.264 276.695 137.353 276.312 138.355C277.51 137.019 280.078 134.005 280.767 132.632C281.457 131.258 286.899 123.094 289.534 119.183C290.78 116.989 293.415 112.373 293.99 111.457C294.288 110.982 294.66 110.285 295.004 109.633C294.999 109.488 294.996 109.376 294.996 109.311C294.996 108.882 294.852 105.591 293.846 104.446C292.84 103.302 290.684 99.582 290.828 97.722C290.845 97.4936 290.867 97.2135 290.892 96.895L290.893 96.891C291.071 94.6153 291.403 90.392 291.403 89.1377C291.403 87.707 291.259 85.2748 288.816 83.9871C288.209 83.6675 287.612 83.348 287.043 83.0437C285.32 82.122 283.859 81.3408 283.211 81.1257C282.884 81.0171 281.853 80.9909 280.512 81.0549Z" fill="black"/>
<path opacity="0.1" d="M251.591 114.602C252.281 112.656 252.166 101.964 252.022 96.8612C253.939 99.5319 257.628 106.418 257.053 112.599C256.334 120.325 253.603 125.046 251.016 127.479C248.947 129.424 242.872 132.486 240.094 133.774L236.07 128.051C238.657 126.859 244.377 124.074 246.561 122.471C249.292 120.468 250.729 117.034 251.591 114.602Z" fill="black"/>
<path opacity="0.1" d="M259.639 131.631L257.77 132.633L249.435 115.321L245.267 107.881L244.548 107.309L244.117 108.597L242.393 106.021L241.818 104.591V102.588C242.297 102.969 243.341 103.818 243.686 104.161C244.031 104.505 244.884 105.258 245.267 105.592L248.429 111.315L250.872 115.321V116.895L259.639 131.631Z" fill="black"/>
<path d="M287.52 114.175L292.551 106.735C292.742 106.878 293.154 107.308 293.269 107.88C293.413 108.595 292.551 111.886 291.976 112.458C291.401 113.031 280.909 128.768 280.191 129.198C279.616 129.541 278.035 133.538 277.316 135.493L276.598 138.354L278.61 136.065C279.376 135.016 280.909 132.832 280.909 132.488C280.909 132.145 284.359 126.908 286.083 124.333C287.952 121.233 291.861 114.776 292.551 113.746C293.24 112.716 294.467 109.406 294.994 107.88V110.598C294.754 111.028 294.189 112 293.844 112.458C293.413 113.031 289.964 119.183 289.533 119.755C289.101 120.327 281.628 132.918 280.909 134.348C280.335 135.493 278.035 138.354 276.598 139.213C275.161 140.071 273.005 139.213 272.574 138.354C272.143 137.496 272.574 137.067 272.574 137.067L273.867 137.925C273.915 137.496 274.068 136.523 274.298 136.065L275.879 132.918C276.694 131.344 278.38 128.139 278.61 127.91C278.84 127.681 281.293 123.904 282.49 122.044L285.508 117.037L287.52 114.175Z" fill="#848484"/>
<path d="M290.971 115.179C290.971 115.653 290.585 116.037 290.108 116.037C289.784 116.037 289.501 115.859 289.354 115.595C288.243 115.568 287.306 115.734 286.642 115.922C286.563 116.314 286.214 116.609 285.797 116.609C285.321 116.609 284.934 116.225 284.934 115.751C284.934 115.277 285.321 114.892 285.797 114.892C286.016 114.892 286.215 114.973 286.367 115.107C287.12 114.89 288.156 114.708 289.369 114.737C289.52 114.487 289.794 114.32 290.108 114.32C290.585 114.32 290.971 114.704 290.971 115.179Z" fill="black"/>
<path d="M284.914 119.373C284.827 119.756 284.483 120.043 284.072 120.043C283.596 120.043 283.21 119.659 283.21 119.185C283.21 118.71 283.596 118.326 284.072 118.326C284.296 118.326 284.5 118.411 284.653 118.55C284.785 118.495 284.91 118.44 285.031 118.387L285.05 118.378C285.336 118.253 285.614 118.13 285.903 118.041C286.45 117.872 287.007 117.83 287.788 117.991C287.943 117.844 288.153 117.754 288.384 117.754C288.86 117.754 289.246 118.138 289.246 118.612C289.246 119.086 288.86 119.471 288.384 119.471C287.979 119.471 287.639 119.193 287.546 118.818C286.928 118.699 286.535 118.745 286.158 118.861C285.925 118.933 285.692 119.034 285.399 119.163L285.374 119.174C285.233 119.236 285.08 119.303 284.914 119.373Z" fill="black"/>
<path d="M283.178 121.993C283.075 122.354 282.743 122.618 282.348 122.618C281.871 122.618 281.485 122.234 281.485 121.76C281.485 121.286 281.871 120.901 282.348 120.901C282.59 120.901 282.809 121.001 282.966 121.161C283.597 120.999 284.409 120.911 285.246 121.099C285.396 120.976 285.588 120.901 285.797 120.901C286.273 120.901 286.659 121.286 286.659 121.76C286.659 122.234 286.273 122.618 285.797 122.618C285.373 122.618 285.021 122.315 284.948 121.914C284.301 121.792 283.669 121.866 283.178 121.993Z" fill="black"/>
<path d="M281.387 125.02C281.242 125.293 280.954 125.48 280.623 125.48C280.147 125.48 279.761 125.095 279.761 124.621C279.761 124.147 280.147 123.763 280.623 123.763C280.926 123.763 281.193 123.918 281.346 124.154C281.645 124.098 281.971 124.053 282.294 124.032C282.633 124.01 282.983 124.013 283.305 124.066C283.487 124.095 283.673 124.143 283.846 124.218C283.989 124.112 284.167 124.049 284.36 124.049C284.836 124.049 285.222 124.433 285.222 124.907C285.222 125.381 284.836 125.766 284.36 125.766C283.917 125.766 283.552 125.433 283.503 125.005C283.417 124.968 283.305 124.936 283.166 124.913C282.93 124.874 282.65 124.869 282.351 124.888C282.022 124.91 281.686 124.961 281.387 125.02Z" fill="black"/>
<path d="M279.385 128.148C279.244 128.432 278.95 128.627 278.611 128.627C278.135 128.627 277.749 128.243 277.749 127.769C277.749 127.295 278.135 126.91 278.611 126.91C278.906 126.91 279.167 127.058 279.322 127.283C279.5 127.247 279.691 127.213 279.888 127.186C280.297 127.13 280.754 127.098 281.195 127.131C281.348 126.994 281.551 126.91 281.773 126.91C282.249 126.91 282.635 127.295 282.635 127.769C282.635 128.243 282.249 128.627 281.773 128.627C281.369 128.627 281.03 128.351 280.936 127.977C280.636 127.97 280.318 127.993 280.007 128.036C279.786 128.067 279.575 128.106 279.385 128.148Z" fill="black"/>
<path d="M277.501 130.946C277.344 131.105 277.127 131.203 276.886 131.203C276.41 131.203 276.024 130.818 276.024 130.344C276.024 129.87 276.41 129.486 276.886 129.486C277.256 129.486 277.572 129.718 277.694 130.043C278.138 129.974 278.639 129.915 279.042 129.915C279.223 129.915 279.383 129.926 279.525 129.947C279.67 129.837 279.852 129.772 280.048 129.772C280.524 129.772 280.91 130.156 280.91 130.63C280.91 131.104 280.524 131.489 280.048 131.489C279.622 131.489 279.268 131.181 279.198 130.777C279.15 130.775 279.098 130.773 279.042 130.773C278.597 130.773 277.979 130.861 277.501 130.946Z" fill="black"/>
<path d="M275.833 133.458C275.675 133.653 275.433 133.778 275.162 133.778C274.685 133.778 274.299 133.394 274.299 132.919C274.299 132.445 274.685 132.061 275.162 132.061C275.526 132.061 275.838 132.286 275.964 132.605C276.291 132.624 276.662 132.678 277.023 132.798C277.435 132.935 277.797 133.044 278.059 133.118C278.209 132.994 278.401 132.919 278.611 132.919C279.087 132.919 279.473 133.304 279.473 133.778C279.473 134.252 279.087 134.636 278.611 134.636C278.185 134.636 277.832 134.33 277.761 133.926C277.493 133.849 277.143 133.743 276.75 133.613C276.44 133.51 276.112 133.468 275.833 133.458Z" fill="black"/>
<path d="M257.335 91.6552C257.303 91.4203 257.086 91.2559 256.85 91.2879C256.614 91.32 256.449 91.5363 256.481 91.7712L256.852 94.4826C256.796 94.5967 256.764 94.7251 256.764 94.8607C256.764 95.3348 257.151 95.7192 257.627 95.7192C258.103 95.7192 258.489 95.3348 258.489 94.8607C258.489 94.3967 258.119 94.0187 257.657 94.0028L257.335 91.6552Z" fill="black"/>
<path d="M253.888 93.9574C253.863 93.7217 253.651 93.5507 253.414 93.5755C253.177 93.6003 253.005 93.8115 253.03 94.0473L253.318 96.7657C253.318 96.7704 253.319 96.775 253.319 96.7797C253.317 96.8073 253.315 96.8354 253.315 96.8637C253.315 97.3378 253.701 97.7222 254.177 97.7222C254.654 97.7222 255.04 97.3378 255.04 96.8637C255.04 96.3896 254.654 96.0053 254.177 96.0053C254.153 96.0053 254.129 96.0063 254.105 96.0083L253.888 93.9574Z" fill="black"/>
<path d="M251.016 96.1484C251.016 95.9114 250.823 95.7192 250.585 95.7192C250.346 95.7192 250.153 95.9114 250.153 96.1484V97.6546C249.977 97.8118 249.866 98.0402 249.866 98.2945C249.866 98.7686 250.252 99.1529 250.728 99.1529C251.204 99.1529 251.591 98.7686 251.591 98.2945C251.591 97.9207 251.351 97.6027 251.016 97.4849V96.1484Z" fill="black"/>
<path d="M248.141 97.293C248.141 97.056 247.948 96.8638 247.71 96.8638C247.472 96.8638 247.279 97.056 247.279 97.293V99.0853C247.103 99.2425 246.992 99.4709 246.992 99.7252C246.992 100.199 247.378 100.584 247.854 100.584C248.33 100.584 248.716 100.199 248.716 99.7252C248.716 99.3514 248.476 99.0334 248.141 98.9156V97.293Z" fill="black"/>
<path d="M245.411 99.0099C245.411 98.7728 245.218 98.5807 244.979 98.5807C244.741 98.5807 244.548 98.7728 244.548 99.0099V100.681C244.458 100.817 244.405 100.98 244.405 101.156C244.405 101.63 244.791 102.014 245.267 102.014C245.743 102.014 246.129 101.63 246.129 101.156C246.129 100.731 245.818 100.377 245.411 100.309V99.0099Z" fill="black"/>
<path d="M242.967 100.441C242.967 100.204 242.774 100.011 242.536 100.011C242.298 100.011 242.105 100.204 242.105 100.441V102.233C241.929 102.39 241.818 102.619 241.818 102.873C241.818 103.347 242.204 103.731 242.68 103.731C243.156 103.731 243.542 103.347 243.542 102.873C243.542 102.499 243.302 102.181 242.967 102.063V100.441Z" fill="black"/>
<path d="M48.23 243.37C46.9365 244.372 48.0863 246.661 48.23 247.233C48.6132 248.044 50.1845 250.209 53.4038 252.384C57.428 255.102 72.6621 264.688 79.8481 268.837C87.034 272.986 91.7767 270.125 97.5254 264.688C103.274 259.251 127.563 233.784 136.761 223.197C145.959 212.61 164.929 187 168.954 181.277C172.978 175.554 180.164 165.11 180.307 158.958C180.449 152.9 167.77 144.761 163.128 141.781L162.917 141.646C158.462 138.785 150.414 133.491 146.102 131.202C141.791 128.913 140.21 128.913 139.204 130.2C138.198 131.488 128.569 144.221 125.982 148.084C123.395 151.947 109.885 170.833 107.442 173.265C104.999 175.697 86.028 196.586 85.3094 197.158C84.5908 197.73 71.2249 214.327 65.3325 220.479C60.6185 225.4 53.6913 236.837 50.8169 241.94C50.3858 242.083 49.2648 242.569 48.23 243.37Z" fill="#DDDDDD"/>
<path d="M191.517 154.093C181.888 162.964 182.463 165.539 183.182 167.685C185.194 175.125 198.56 191.292 207.901 202.452C217.243 213.611 252.598 251.812 258.059 256.104C263.52 260.396 275.88 271.412 280.479 272.7C285.078 273.988 293.27 267.406 296.288 265.833C299.306 264.259 313.247 254.387 318.277 249.522C323.307 244.658 314.972 237.934 309.798 230.351C304.624 222.768 286.659 205.885 282.779 202.452C278.898 199.018 259.496 180.132 253.316 173.265C247.137 166.397 229.89 143.935 226.154 138.355C222.417 132.776 219.111 134.493 215.518 136.782C211.925 139.071 201.147 145.223 191.517 154.093Z" fill="#DDDDDD"/>
<path d="M162.731 27.5394C165.519 25.3685 173.993 21.1493 186.489 21.0363C197.527 21.0363 206.801 25.1377 210.059 27.1883C210.044 27.2569 210.03 27.3269 210.015 27.3982C209.959 27.3518 209.901 27.3047 209.841 27.257C209.248 29.807 208.382 33.4047 207.616 36.2019C206.581 39.979 202.298 49.7938 200.286 54.229C198.705 55.9935 194.738 59.6371 191.519 60.0949C187.495 60.6672 177.866 61.0964 172.836 55.3736C169.071 51.0905 164.761 35.9553 162.731 27.5394Z" fill="#848484"/>
<path d="M103.849 179.127C102.124 181.645 78.2189 208.409 66.4818 221.477C67.3921 222.526 69.7874 224.882 72.0869 225.912C74.9612 227.2 77.2607 223.05 81.4286 218.329C85.5964 213.608 107.154 189.858 111.178 184.85C114.398 180.844 137.335 151.324 148.401 137.064C148.066 136.444 146.964 134.918 145.24 133.774C143.084 132.343 141.359 131.627 140.353 132.057C139.347 132.486 133.311 141.786 130.868 144.504C128.425 147.222 106.004 175.98 103.849 179.127Z" fill="#EBEBEB"/>
<path d="M108.159 193.15C101.832 200.164 76.5421 228.201 75.6798 229.489C76.6859 230.776 84.8778 237.072 89.6205 240.791C93.4147 243.767 100.687 247.754 103.849 249.376C108.208 245.751 117.473 237.844 119.658 235.212C122.388 231.921 140.353 213.035 147.108 204.165C153.863 195.294 173.84 165.392 174.558 163.819C175.277 162.245 177.576 158.239 177.145 157.237C176.714 156.236 164.929 147.938 163.205 147.079C161.48 146.221 151.132 138.066 150.27 138.209C149.408 138.352 142.222 150.513 139.06 155.091C135.898 159.67 114.484 186.138 108.16 193.148L108.159 193.15Z" fill="#EBEBEB"/>
<path d="M58.4336 232.35C57.9737 232.808 52.6848 240.076 50.0979 243.653C52.2058 245.322 56.6227 248.803 57.4276 249.376C58.4336 250.091 59.8708 247.087 62.0266 243.653C64.1823 240.219 72.0869 230.347 72.0869 229.489C72.0869 228.63 69.4999 226.627 68.9251 225.912C68.3502 225.197 65.6195 222.764 64.7572 223.194C63.8949 223.623 59.0085 231.778 58.4336 232.35Z" fill="#EBEBEB"/>
<path d="M73.3803 230.347C72.6905 230.233 63.1284 243.653 58.4336 250.377C60.5415 251.856 65.792 255.328 69.9311 257.388C75.105 259.963 87.7522 267.546 89.6205 266.115C91.1152 264.971 98.6748 255.719 102.268 251.236C97.7167 248.183 88.4421 241.965 87.7522 241.507C86.8899 240.934 74.2426 230.49 73.3803 230.347Z" fill="#EBEBEB"/>
<path d="M200.14 152.802C199.134 153.374 187.206 162.674 185.912 163.819C190.655 171.688 203.158 191.031 215.231 205.453C227.303 219.874 249.675 240.744 259.352 249.376C261.029 251.093 264.584 254.498 265.389 254.383C266.193 254.269 272.335 248.231 275.305 245.227C280.239 241.125 290.252 232.751 290.827 232.064C291.545 231.206 289.533 228.201 287.09 225.912C284.647 223.623 265.389 204.165 260.502 199.73C255.616 195.294 220.261 155.091 218.824 151.944C217.674 149.426 213.746 145.267 211.925 143.502C208.332 146.412 200.945 152.344 200.14 152.802Z" fill="#EBEBEB"/>
<path d="M252.454 187.282C243.371 177.897 222.896 153.422 213.794 142.358C218.144 139.21 221.267 137.064 221.985 137.064C222.704 137.064 232.477 148.367 234.776 151.944C237.076 155.52 262.802 184.85 267.975 190.144C272.115 194.379 290.779 213.751 299.594 222.907C298.54 223.909 296.173 226.198 295.138 227.343C293.845 228.773 293.701 228.201 290.827 225.912C287.952 223.623 263.808 199.014 252.454 187.282Z" fill="#EBEBEB"/>
<path d="M286.084 238.073C283.67 239.79 272.047 250.234 266.538 255.242C269.461 258.675 275.88 266.029 278.179 267.975C281.054 270.407 283.497 267.975 287.09 265.543C290.683 263.111 308.648 252.38 309.223 251.236C309.798 250.091 304.049 242.794 301.462 240.791C299.392 239.189 295.042 234.305 293.126 232.064C291.785 233.352 288.498 236.356 286.084 238.073Z" fill="#EBEBEB"/>
<path d="M299.594 225.053C298.099 225.74 296.001 229.155 295.138 230.776C299.833 236.976 309.424 249.376 310.229 249.376C311.235 249.376 313.103 247.659 313.534 247.23C313.965 246.8 317.702 245.227 317.127 243.796C316.552 242.365 303.761 225.912 303.187 225.053C302.612 224.195 301.462 224.195 299.594 225.053Z" fill="#EBEBEB"/>
<path d="M164.114 32.9507C166.464 30.3093 172.095 25.5181 178.438 24.7561C186.773 23.7546 194.534 23.8977 201.145 26.7591C202.199 27.4268 204.594 29.3916 205.744 31.9097C206.995 34.6481 207.048 36.7368 206.947 38.2699C206.041 40.8308 204.577 44.3897 203.167 47.6813C200.594 49.5016 191.648 54.5772 186.486 54.9443C182.075 55.258 173.57 50.7404 168.882 47.848C167.104 43.3383 165.42 37.7765 164.114 32.9507Z" fill="#1A1916"/>
<g opacity="0.2">
<path d="M148.289 137.211H146.82C140.208 145.891 126.728 163.479 125.693 164.395C124.741 165.237 114.841 177.466 109.104 184.553C107.044 187.097 105.521 188.979 105.141 189.433C103.991 190.806 92.0148 204.503 86.1702 211.18C81.9545 215.615 73.4655 224.485 73.2355 224.485C73.0056 224.485 69.8821 222.005 68.3491 220.765L66.5581 221.395C66.5323 221.423 66.5065 221.452 66.4808 221.481C67.391 222.53 69.7863 224.886 72.0858 225.916C74.3336 226.923 76.2298 224.605 78.9429 221.289C79.6992 220.364 80.5189 219.362 81.4275 218.333C82.6304 216.97 85.2817 214.023 88.542 210.398C96.5784 201.464 108.315 188.417 111.177 184.854C114.386 180.862 137.181 151.524 148.289 137.211Z" fill="black"/>
<path d="M177.157 157.939L174.988 159.531C170.773 166.78 161.967 181.649 160.473 183.137C159.647 183.959 157.306 187.24 154.541 191.114L154.541 191.115C151.048 196.009 146.879 201.85 144.233 204.884C141.582 207.922 131.797 218.465 123.503 227.402L123.502 227.403C116.953 234.459 111.334 240.513 110.89 241.082C109.884 242.369 104.566 245.803 103.991 245.803C103.416 245.803 87.6074 236.646 87.32 236.217C87.0325 235.788 82.0024 231.782 80.4215 230.923C79.3562 230.345 77.1286 229.794 75.6795 229.492C75.6792 229.492 75.679 229.492 75.6787 229.493C76.5214 230.571 82.4053 235.163 87.0813 238.812L87.0817 238.812L87.0881 238.817C87.9923 239.523 88.8511 240.193 89.6195 240.795C93.4136 243.771 100.686 247.758 103.848 249.38C108.207 245.755 117.472 237.848 119.657 235.216C120.513 234.184 122.867 231.618 125.905 228.309C132.552 221.065 142.47 210.258 147.107 204.169C153.862 195.299 173.839 165.396 174.557 163.823C174.718 163.47 174.959 162.995 175.23 162.459C175.974 160.991 176.949 159.064 177.157 157.939Z" fill="black"/>
<path d="M72.0654 229.35C72.0788 229.4 72.0858 229.448 72.0858 229.493C72.0858 229.969 69.654 233.218 67.1202 236.603C65.0857 239.322 62.9855 242.128 62.0255 243.657C61.5866 244.356 61.1774 245.037 60.7956 245.673C59.3023 248.16 58.2277 249.949 57.4265 249.38C56.6241 248.809 52.2318 245.347 50.1163 243.672C50.6365 243.454 51.282 243.228 51.6777 243.228C52.0445 243.228 53.1227 244.122 54.2243 245.036C55.2809 245.913 56.3591 246.807 56.8516 246.948C57.5004 247.132 57.9699 246.483 58.3757 245.923C58.5991 245.614 58.8033 245.332 59.0074 245.231C59.5823 244.945 69.2114 231.782 69.4988 230.923C69.5601 230.741 69.6148 230.564 69.6658 230.4L69.6662 230.399C69.8542 229.792 69.9914 229.35 70.2174 229.35H72.0654Z" fill="black"/>
<path d="M102.207 251.315L98.53 251.669C98.1468 252.05 97.3515 252.871 97.2366 253.1C97.0928 253.386 89.7632 262.972 87.7511 263.115C85.8702 263.248 84.994 262.757 79.2521 259.537L79.2494 259.535C78.8499 259.311 78.4268 259.074 77.9782 258.822C74.119 256.661 69.8549 253.963 66.721 251.98L66.7206 251.98L66.7198 251.979C64.2524 250.418 62.4857 249.3 62.1692 249.237C61.6594 249.135 59.7558 249.926 58.5629 250.472C60.7503 251.998 65.8738 255.373 69.93 257.392C71.1331 257.991 72.7402 258.86 74.522 259.824C80.4027 263.006 88.1856 267.217 89.6195 266.119C91.1058 264.981 98.5901 255.825 102.207 251.315Z" fill="black"/>
<path d="M290.965 231.725C290.948 231.861 290.902 231.977 290.826 232.068C290.251 232.755 280.238 241.129 275.304 245.231C272.334 248.235 266.192 254.273 265.387 254.387C264.583 254.502 261.028 251.097 259.351 249.38C249.674 240.748 227.302 219.878 215.23 205.457C203.242 191.137 190.83 171.964 186.013 163.991C187.1 164.641 188.684 165.674 189.073 166.255C189.143 166.36 189.442 166.825 189.922 167.573L189.922 167.573C193.36 172.929 206.09 192.761 210.631 198.16C215.804 204.312 232.763 222.768 239.662 228.92C241.588 230.638 244.051 233.014 246.674 235.543C253.446 242.072 261.28 249.626 263.663 249.523C266.968 249.38 272.43 244.229 272.861 243.8C273.292 243.371 283.927 234.5 286.083 233.356C287.602 232.549 289.754 231.979 290.965 231.725Z" fill="black"/>
<path d="M213.904 142.498C223.061 153.625 243.407 177.939 252.453 187.286C263.807 199.018 287.951 223.627 290.826 225.916C291.267 226.268 291.644 226.579 291.971 226.848L291.972 226.849C293.771 228.334 294.043 228.557 295.137 227.347C296.172 226.202 298.539 223.913 299.592 222.911C299.521 222.837 299.449 222.762 299.376 222.686C298.635 222.412 297.864 222.198 297.58 222.339C297.34 222.459 296.697 223.129 295.978 223.879C294.978 224.922 293.831 226.119 293.413 226.202C292.838 226.317 290.107 223.674 288.814 222.339C280.909 214.566 264.784 198.589 263.519 196.872C262.277 195.186 249.498 181.22 243.523 174.69L243.522 174.689L243.521 174.688C241.893 172.908 240.77 171.681 240.524 171.406C239.604 170.375 229.314 158.481 224.284 152.663L215.948 142.934L214.655 142.362L213.904 142.498Z" fill="black"/>
<path d="M309.185 251.296C308.489 252.216 300.701 257.042 294.435 260.925L294.434 260.926L294.433 260.926L294.432 260.927C291.16 262.954 288.303 264.725 287.089 265.547C286.601 265.877 286.134 266.208 285.684 266.526L285.683 266.527C282.823 268.551 280.662 270.081 278.178 267.979C275.88 266.034 269.467 258.688 266.542 255.252C266.86 255.087 267.323 254.96 267.974 254.96C269.699 254.96 270.274 255.103 270.561 255.818C270.849 256.533 277.747 266.405 281.196 265.69C284.11 265.086 295.022 257.744 298.774 255.219C299.464 254.755 299.912 254.454 300.024 254.387C300.742 253.958 304.479 251.24 305.197 250.667C305.429 250.483 305.556 250.328 305.651 250.213C305.85 249.97 305.907 249.901 306.491 250.095C307.062 250.285 308.331 250.88 309.185 251.296Z" fill="black"/>
<path d="M317.145 244.374C316.667 244.176 316.125 243.946 315.833 243.8C315.456 243.613 315.141 244.161 314.888 244.603C314.755 244.835 314.638 245.038 314.539 245.088C314.46 245.127 314.187 245.338 313.818 245.624C312.838 246.381 311.18 247.663 310.659 247.663C310.214 247.663 309.935 247.389 309.514 246.977C309.255 246.723 308.942 246.416 308.503 246.089C307.583 245.402 300.455 235.693 297.006 230.923H295.246C299.978 237.169 309.429 249.38 310.228 249.38C311.234 249.38 313.102 247.663 313.533 247.234C313.638 247.129 313.939 246.957 314.326 246.735C315.317 246.167 316.873 245.276 317.145 244.374Z" fill="black"/>
</g>
<path d="M176.695 52.0965C173.801 50.7365 170.966 49.1317 168.885 47.8474C170.19 51.1596 171.545 53.9043 172.836 55.3729C177.866 61.0958 187.495 60.6666 191.519 60.0943C192.325 59.9797 193.178 59.6653 194.029 59.2308C195.348 58.249 196.727 57.0219 197.411 56.3744C195.16 57.3759 189.996 59.4076 187.351 59.522C184.046 59.6651 176.86 56.9468 175.422 54.5145C174.842 53.5328 175.55 52.7142 176.695 52.0965Z" fill="#5C5C5C"/>
<path d="M164.117 32.9501C163.586 30.9838 163.117 29.1397 162.731 27.5388C165.468 25.4082 173.68 21.305 185.796 21.0461C187.023 21.0696 188.317 21.1026 189.59 21.1418C192.76 21.3575 195.739 21.8838 198.414 22.5593C197.897 23.1372 196.841 23.754 196.262 23.754C196.037 23.754 195.415 23.711 194.52 23.649C191.417 23.4342 185.026 22.9916 180.453 23.3248C174.56 23.754 169.099 25.6139 167.805 26.9016C167.01 27.6931 166.541 29.4039 166.331 30.7707C165.429 31.5638 164.679 32.3184 164.117 32.9501Z" fill="#5C5C5C"/>
<path d="M57.4276 260.679C56.3929 259.191 56.4216 255.958 56.5653 254.527L74.8175 265.973C74.3385 266.64 73.2654 268.033 72.8055 268.262C72.2306 268.548 70.506 269.549 68.2065 269.263C66.3669 269.034 63.0326 267.07 61.5954 266.116L55.8467 270.551C55.7029 270.646 55.3868 270.837 55.2718 270.837C55.1568 270.837 54.9364 270.456 54.8406 270.265L59.7271 263.97C59.3918 263.493 58.4624 262.167 57.4276 260.679Z" fill="#C4C4C4"/>
<path d="M300.025 270.837C296.231 272.096 293.462 269.645 292.551 268.262C294.621 267.461 305.582 259.63 310.804 255.815C310.995 256.291 311.379 257.76 311.379 259.821C311.379 261.881 308.887 265.162 307.642 266.545L311.81 273.126L310.947 273.699L305.486 268.405C305.247 268.691 303.819 269.578 300.025 270.837Z" fill="#C4C4C4"/>
<g opacity="0.2">
<path d="M56.5311 254.954C56.9146 256.804 57.8504 260.037 59.2969 261.682C61.309 263.971 64.4708 267.119 67.92 267.691C70.6474 268.144 73.5059 266.677 74.6358 265.86L74.6795 265.887L74.7004 266.137C74.181 266.846 73.2317 268.052 72.8065 268.264C72.7645 268.284 72.7163 268.309 72.6622 268.337C71.9764 268.689 70.3389 269.53 68.2075 269.265C66.3679 269.036 63.0336 267.071 61.5964 266.117L61.5182 266.178L59.5947 264.143L59.7281 263.971C59.3927 263.494 58.4634 262.169 57.4286 260.681C56.4866 259.326 56.426 256.525 56.5311 254.954Z" fill="black"/>
<path d="M310.661 255.959C310.326 257.867 309.368 261.997 308.218 263.256C308.06 263.429 307.9 263.607 307.737 263.79C306.415 265.264 304.868 266.99 302.182 268.264C299.53 269.521 297.1 269.231 296.354 269.143C296.251 269.13 296.18 269.122 296.145 269.122C295.924 269.122 294.536 268.153 293.79 267.612C293.491 267.789 293.228 267.937 293.007 268.051L292.605 268.342C293.567 269.737 296.303 272.074 300.026 270.839C303.82 269.58 305.248 268.693 305.487 268.407L305.592 268.508C305.665 268.468 305.726 268.434 305.775 268.407C306.104 268.219 306.865 267.541 307.745 266.708L307.643 266.547C308.888 265.164 311.38 261.883 311.38 259.822C311.38 258.177 311.135 256.908 310.939 256.221C310.839 256.126 310.745 256.037 310.661 255.959Z" fill="black"/>
</g>
<path d="M122.29 153.37C117.281 160.428 109.267 171.445 107.441 173.264C106.193 174.506 100.633 180.564 95.3957 186.269L95.3951 186.27L95.3946 186.27L95.3943 186.271C90.3787 191.735 85.6594 196.877 85.3079 197.157C85.0503 197.362 83.1668 199.627 80.5849 202.732L80.5844 202.733C76.0799 208.15 69.45 216.123 65.6185 220.175V218.904C65.9538 218.475 66.4233 217.53 65.6185 217.187C64.8136 216.844 62.9836 214.755 62.1692 213.753C62.5525 212.847 63.6064 210.949 64.7562 210.606C65.9059 210.262 68.6845 211.703 69.93 212.466L72.8044 207.744C72.6128 207.649 71.8846 207.229 70.5049 206.313C69.1252 205.398 68.2054 204.31 67.918 203.881C68.3012 202.737 69.3552 200.448 70.5049 200.448C71.6546 200.448 75.2955 202.26 76.9722 203.166L81.1401 197.3C80.9964 197.157 80.3927 196.699 79.128 196.012C77.8633 195.326 77.1639 193.628 76.9722 192.865C77.4992 191.863 78.6681 189.86 79.128 189.86C79.3253 189.86 79.4549 189.827 79.5806 189.794C79.8214 189.731 80.0481 189.672 80.7089 189.86C81.5137 190.089 83.8228 191.672 84.8768 192.435C85.26 191.959 86.2277 190.776 87.0325 189.86C87.8374 188.945 102.219 174.79 109.309 167.827C108.926 167.684 108.044 167.169 107.584 166.253C107.124 165.338 106.818 165.013 106.722 164.966L108.159 162.963C108.495 162.867 109.395 162.734 110.315 162.963C111.235 163.192 112.231 163.535 112.614 163.678L114.77 160.387C114.579 160.292 114.023 159.901 113.333 159.1C112.643 158.299 112.183 157.621 112.04 157.383C112.423 156.763 113.391 155.466 114.195 155.237C115 155.008 116.639 155.904 117.357 156.381C118.028 155.475 119.542 153.577 120.232 153.234C120.708 152.997 121.577 153.155 122.29 153.37Z" fill="#CECECE"/>
<path d="M299.877 218.972C293.038 211.911 285.189 204.584 282.777 202.451C278.897 199.017 259.495 180.131 253.315 173.264C250.537 170.176 245.522 163.937 240.503 157.497C241.313 157.31 242.853 157.091 243.398 157.526C243.973 157.984 245.267 159.72 245.842 160.53C246.608 160.006 248.285 158.957 248.86 158.957C249.435 158.957 250.632 160.769 251.159 161.675L249.722 163.106C249.377 163.449 248.716 164.012 248.429 164.25L251.159 167.398C251.926 167.016 253.66 166.253 254.465 166.253C255.27 166.253 256.333 168.066 256.764 168.972C256.668 169.306 256.333 170.03 255.758 170.259C255.183 170.488 254.656 170.736 254.465 170.832C256.716 173.216 261.622 178.329 263.232 179.702C265.244 181.419 268.98 183.708 269.986 184.137C270.8 184.485 275.473 189.422 277.531 191.597L277.531 191.598C278.016 192.11 278.356 192.469 278.466 192.579C278.926 193.036 279.711 194.295 280.047 194.868C281.244 193.819 283.755 191.692 284.215 191.577C284.674 191.463 285.364 191.529 285.652 191.577C285.572 191.716 285.993 192.192 286.487 192.749C287.177 193.529 288.009 194.467 287.807 194.868C287.463 195.554 286.131 196.537 285.652 196.871L284.646 197.443V198.588C284.646 198.931 284.358 199.303 284.215 199.446C284.981 200.448 286.658 202.594 287.233 203.166C287.807 203.738 288.43 204.549 288.67 204.883C290.299 204.072 293.642 202.422 293.987 202.307C294.332 202.193 295.089 201.974 295.425 201.878C295.289 202.125 296.019 202.836 296.782 203.579C297.641 204.417 298.543 205.295 298.299 205.598C297.839 206.17 295.137 207.077 294.419 207.315C293.963 207.617 293.868 207.76 293.796 207.869C293.731 207.967 293.684 208.038 293.412 208.173C293.122 208.318 293.091 208.609 293.06 208.9C293.045 209.045 293.029 209.191 292.981 209.318V210.033L295.425 213.753L296.143 214.326C297.053 213.61 299.104 212.151 300.024 212.036C300.943 211.922 301.557 211.989 301.748 212.036L303.904 214.612C303.617 214.993 302.783 216.1 302.323 216.329C301.998 216.49 301.811 216.698 301.606 216.925C301.448 217.1 301.28 217.286 301.03 217.473C300.898 217.572 300.585 218.001 300.222 218.5L300.222 218.501C300.111 218.654 299.995 218.813 299.877 218.972Z" fill="#CECECE"/>
<path d="M164.357 17.3152C164.127 17.4297 162.536 19.1751 161.77 20.0336V25.6134L161.338 28.3318C163.015 26.901 167.863 23.8107 173.842 22.895C181.315 21.7505 190.657 22.0366 196.981 22.895C202.04 23.5818 208.67 26.8057 211.353 28.3318V27.9025C211.4 27.7118 211.467 27.2158 211.353 26.758C211.209 26.1857 210.778 25.0411 210.634 24.755C210.49 24.4688 210.634 20.892 210.346 20.0336C210.059 19.1751 206.61 16.4568 206.179 15.7414C205.747 15.0261 204.741 12.1646 203.879 10.5908C203.017 9.01703 202.298 7.87246 200.286 6.01252C198.274 4.15258 190.082 -0.139581 185.914 0.00349079C181.746 0.146563 173.411 4.72487 171.111 6.58481C168.812 8.44474 166.656 15.5983 166.369 15.7414C166.081 15.8845 164.644 17.1721 164.357 17.3152Z" fill="#F2F2F2"/>
<path opacity="0.1" d="M210.584 24.3955C209.747 23.389 208.734 22.2083 208.478 22.0382C208.133 21.8093 207.281 20.989 206.897 20.6075V18.4614C206.897 18.1305 199.72 15.5029 196.302 14.2515C195.287 13.88 194.603 13.6297 194.537 13.597C194.496 13.5764 194.413 13.538 194.301 13.4861C193.633 13.1774 191.93 12.3906 191.807 12.0232C191.663 11.5939 192.094 10.5924 193.963 10.0202C195.457 9.56233 197.843 9.06634 198.849 8.87558C198.466 8.16022 197.642 6.67227 197.412 6.44336C197.199 6.23198 194.87 6.3329 193.319 6.40007C192.77 6.42383 192.319 6.44336 192.094 6.44336C191.232 6.44336 188.07 6.30026 187.783 6.15718C187.656 6.09418 187.362 5.30969 187.036 4.4392C186.622 3.33311 186.156 2.08816 185.914 2.0081C185.483 1.86503 184.046 1.43581 183.759 2.0081C183.706 2.11283 183.624 2.29903 183.521 2.53512C183.06 3.58905 182.164 5.63725 181.459 5.87103C180.87 6.06642 178.74 5.72816 177.265 5.49392C176.58 5.38511 176.036 5.29875 175.854 5.29875C175.279 5.29875 172.836 6.87254 172.117 7.5879C171.914 7.78978 171.746 7.9233 171.615 8.02705C171.282 8.29091 171.192 8.36213 171.399 8.87558C171.563 9.285 172.905 9.60069 174.076 9.87631C174.951 10.0822 175.731 10.2658 175.854 10.4493C176.141 10.8786 175.279 12.7384 174.848 13.1677C174.507 13.5074 170.475 15.2809 168.665 16.0769C168.188 16.2866 167.866 16.4285 167.806 16.4584C167.648 16.5367 165.913 16.9765 164.265 17.3839C163.851 17.7338 162.468 19.2528 161.77 20.0352V25.615L161.338 28.3333C163.015 26.9026 167.863 23.8123 173.842 22.8966C181.315 21.752 190.657 22.0382 196.981 22.8966C202.04 23.5833 208.67 26.8072 211.353 28.3333V27.9041C211.4 27.7134 211.467 27.2174 211.353 26.7595C211.209 26.1873 210.778 25.0427 210.634 24.7565C210.611 24.7111 210.596 24.5827 210.584 24.3955Z" fill="black"/>
<path d="M162.69 27.3796L161.479 28.4752C164.833 40.3979 171.712 64.93 172.402 67.6769C173.264 71.1107 175.563 78.2643 183.755 79.1227C191.947 79.9811 197.696 74.4013 198.415 73.686C199.013 73.0904 201.105 63.1733 201.872 59.5383C202.027 58.8071 202.127 58.33 202.151 58.2342C202.295 57.6619 209.05 38.4903 209.481 37.4887C209.826 36.6875 210.679 31.1459 211.062 28.4752C210.85 28.1649 210.451 27.7429 209.838 27.256C209.245 29.806 208.379 33.4037 207.613 36.201C206.578 39.9781 202.295 49.7928 200.283 54.228C198.702 55.9926 194.736 59.6362 191.516 60.094C187.492 60.6663 177.863 61.0955 172.833 55.3726C169.044 51.0624 164.704 35.7625 162.69 27.3796Z" fill="#C1C1C1"/>
<path fill-rule="evenodd" clip-rule="evenodd" d="M175.932 17.7476C178.201 17.4966 182.185 17.1476 186.352 17.2115C189.346 17.2575 192.46 17.5168 195.109 18.1912C200.52 19.5693 205.594 22.1334 207.915 23.5581C208.28 23.7823 208.584 23.9823 208.814 24.1487C209.211 24.4366 209.573 24.7562 209.894 25.0838C210.42 25.6217 210.843 26.1891 211.139 26.6884C211.286 26.9379 211.406 27.1777 211.491 27.3947C211.57 27.5992 211.638 27.8296 211.638 28.0453C211.638 28.6916 211.334 31.613 209.611 39.0474C208.863 42.272 207.325 46.5819 205.592 50.7275C204.429 53.5098 203.173 56.2306 201.999 58.5162C200.831 60.7904 199.726 62.6688 198.864 63.7416C195.846 67.4972 191.056 68.9606 186.359 68.9639C186.265 68.9689 186.171 68.9733 186.078 68.9769C180.242 69.2057 175.995 66.683 172.93 63.2765C169.88 59.8864 167.988 55.6124 166.808 52.2712C166.472 51.318 166.192 50.4375 165.96 49.6717C164.09 43.5151 161.064 31.7578 160.77 30.1507C160.521 28.7864 160.663 26.2788 162.071 24.2827C162.434 23.7676 162.882 23.2862 163.43 22.8694C163.571 22.7618 163.722 22.6525 163.882 22.5419C165.25 21.5929 167.319 20.5023 169.5 19.5984C171.679 18.6962 174.02 17.9591 175.932 17.7476ZM186.634 67.8173C191.028 67.758 195.298 66.3471 197.967 63.0266C198.751 62.0508 199.811 60.2617 200.975 57.9951C202.122 55.7617 203.353 53.0986 204.497 50.3675C204.632 48.8887 204.611 45.5461 203.944 40.9151C203.279 42.0915 202.574 43.253 201.832 44.378C199.718 47.5827 197.291 50.5174 194.656 52.664C192.19 54.6737 189.504 56.0221 186.7 56.2088L186.634 67.8173ZM186.706 55.0608C189.162 54.8741 191.596 53.6784 193.928 51.7783C196.442 49.7296 198.795 46.8958 200.871 43.7497C201.87 42.2347 202.801 40.6532 203.652 39.0604C203.523 38.3058 203.378 37.5231 203.215 36.7142C202.597 37.8263 201.926 38.923 201.204 39.9798C197.698 45.1085 192.885 49.4131 186.736 49.7707L186.706 55.0608ZM186.743 48.6234C192.327 48.2653 196.837 44.3337 200.253 39.3359C201.21 37.9368 202.074 36.4633 202.845 34.9769C202.643 34.0768 202.419 33.1487 202.17 32.195C201.013 27.7494 198.159 25.0667 195.036 23.5064C192.15 22.0651 189.048 21.5909 186.896 21.5947L186.743 48.6234ZM186.903 20.4501C189.209 20.4474 192.487 20.9526 195.551 22.4834C198.91 24.1612 202.027 27.0822 203.283 31.9077C203.411 32.3977 203.532 32.8812 203.648 33.3578C205.2 30.0789 206.302 26.8456 206.953 24.3161C204.565 22.9039 199.833 20.5757 194.824 19.3C192.465 18.6995 189.679 18.4365 186.915 18.3676L186.903 20.4501ZM185.765 18.3498C181.874 18.3248 178.199 18.6484 176.059 18.8852C174.303 19.0794 172.077 19.7708 169.942 20.6552C167.98 21.4679 166.138 22.4259 164.857 23.2666C164.896 23.432 164.949 23.6498 165.017 23.914C165.185 24.5704 165.444 25.5129 165.808 26.6512C166.402 28.5055 167.271 30.8737 168.472 33.3687C168.631 32.84 168.804 32.3307 168.991 31.8459C170.458 28.0495 172.558 25.08 175.439 23.1197C178.192 21.2468 181.607 20.3294 185.753 20.4402L185.765 18.3498ZM185.747 21.5851C181.781 21.4749 178.608 22.35 176.088 24.0647C173.449 25.86 171.472 28.6134 170.064 32.2568C169.751 33.0675 169.479 33.9562 169.243 34.8972C169.278 34.9633 169.313 35.0294 169.348 35.0955C172.605 41.1805 177.776 47.3508 185.593 48.5643L185.747 21.5851ZM185.587 49.721C177.565 48.5518 172.238 42.5305 168.865 36.597C168.709 37.3897 168.575 38.2063 168.46 39.0338C169.346 40.6592 170.317 42.2594 171.355 43.784C173.502 46.9368 175.921 49.7413 178.455 51.7695C180.799 53.6452 183.203 54.8272 185.557 55.0505L185.587 49.721ZM185.55 56.1991C182.857 55.9721 180.208 54.6411 177.735 52.6615C175.085 50.5406 172.592 47.6401 170.403 44.4262C169.64 43.3058 168.912 42.1443 168.226 40.9606C168.163 41.5642 168.109 42.1683 168.063 42.768C167.783 46.4323 167.809 49.8843 167.92 51.9686C169.083 55.2434 170.907 59.3131 173.786 62.5128C176.575 65.612 180.341 67.8865 185.484 67.8462L185.55 56.1991ZM166.694 48.114C166.706 46.4671 166.77 44.6028 166.917 42.6811C167.003 41.5502 167.119 40.395 167.27 39.2491C164.882 34.8062 163.106 30.1851 162.278 26.3506C161.778 27.7042 161.748 29.1052 161.902 29.946C162.165 31.3893 164.824 41.7557 166.694 48.114ZM163.146 24.7583C163.72 28.3195 165.305 32.8503 167.562 37.3237C167.696 36.5468 167.849 35.7834 168.024 35.0448C166.484 32.0619 165.41 29.1782 164.713 26.9986C164.341 25.8363 164.075 24.8721 163.902 24.1969C163.885 24.1294 163.869 24.0648 163.853 24.0032C163.587 24.2365 163.352 24.4901 163.146 24.7583ZM207.973 24.9583C207.207 27.8273 205.904 31.4987 204.057 35.1317C204.226 35.9025 204.379 36.6529 204.517 37.3812C206.671 33.0496 208.199 28.7775 208.856 25.6723C208.633 25.4613 208.393 25.2592 208.138 25.0744C208.088 25.0382 208.033 24.9994 207.973 24.9583ZM209.793 26.7342C208.952 30.1958 207.215 34.7591 204.85 39.253C205.397 42.5679 205.63 45.3414 205.694 47.4014C206.915 44.2481 207.933 41.193 208.49 38.7901C210.216 31.345 210.488 28.5436 210.488 28.0453C210.488 28.0501 210.488 28.0322 210.477 27.9854C210.466 27.941 210.447 27.8822 210.419 27.8091C210.362 27.6625 210.272 27.4788 210.148 27.269C210.048 27.1008 209.93 26.9204 209.793 26.7342Z" fill="#DADADA"/>
<path d="M76.6847 22.4655C76.6847 21.8932 76.014 15.1688 75.6787 11.8781C74.0978 12.0212 74.0977 10.3043 74.0977 9.30283C74.0977 8.30133 73.954 7.01368 74.0977 6.44139C74.2415 5.8691 76.2535 5.8691 78.553 5.58295C80.8525 5.29681 82.8646 5.15374 83.152 5.8691C83.4395 6.58446 83.5832 10.0182 83.5832 10.5905C83.5832 11.0483 82.6251 11.2581 82.146 11.3058C82.4334 13.5473 83.0371 18.488 83.152 20.3194C83.267 22.1507 83.0083 22.7039 82.8646 22.7516C81.5711 22.9424 78.8405 23.3239 78.2656 23.3239C77.547 23.3239 76.6847 23.1808 76.6847 22.4655Z" fill="#C4C4C4"/>
<path opacity="0.1" d="M74.7863 6.03369C74.7661 6.90554 74.7876 8.102 74.9601 8.8746C74.9684 8.91175 74.9766 8.94855 74.9847 8.98497C75.257 10.2111 75.4369 11.0207 76.9722 11.0207C78.5531 11.0207 81.7149 10.7345 82.4335 10.5915C82.8876 10.501 83.3119 10.1666 83.5645 9.91252C83.577 10.2293 83.5832 10.4723 83.5832 10.5915C83.5832 10.7711 83.4358 10.9125 83.2276 11.0209C82.933 11.1213 82.5725 11.2219 82.1461 11.3068C81.5837 11.4188 80.6252 11.5308 79.6667 11.6427C78.1757 11.8169 76.6847 11.9911 76.6847 12.1653C76.6847 12.4514 76.9722 16.8866 77.1159 18.0312C77.1646 18.4193 77.1968 18.8897 77.2293 19.3642C77.2927 20.2891 77.3571 21.2298 77.547 21.608C77.7586 22.0292 80.1499 22.4504 81.5697 22.7005C81.8678 22.753 82.1231 22.798 82.3064 22.8338C80.909 23.0346 78.7671 23.3249 78.2656 23.3249C77.547 23.3249 76.6847 23.1818 76.6847 22.4664C76.6847 21.8942 76.014 15.1698 75.6787 11.8791C74.0978 12.0222 74.0977 10.3053 74.0977 9.30382C74.0977 8.96452 74.0813 8.59236 74.065 8.22631C74.0334 7.51192 74.0027 6.82078 74.0977 6.44238C74.1449 6.25469 74.393 6.12855 74.7863 6.03369Z" fill="black"/>
<path opacity="0.2" d="M161.666 26.243L163.778 23.0397V17.8531C163.181 18.4661 162.284 19.4539 161.765 20.0351V25.6149L161.666 26.243Z" fill="black"/>
<path opacity="0.3" d="M211.406 27.5579C206.953 24.4428 198.258 20.1988 186.202 19.1754C176.944 18.3896 168.213 21.0558 161.77 24.1334V25.6136L161.338 28.332C163.015 26.9013 167.863 23.8109 173.842 22.8953C181.315 21.7507 190.657 22.0368 196.981 22.8953C202.04 23.582 208.67 26.8059 211.353 28.332V27.9028C211.371 27.8279 211.393 27.706 211.406 27.5579Z" fill="black"/>
<path d="M171.541 10.3047C171.081 10.7625 168.954 13.5477 167.948 14.883C169.433 14.263 172.604 12.9085 173.409 12.4507C174.415 11.8784 174.415 11.1631 173.84 10.7339C173.265 10.3047 172.115 9.7324 171.541 10.3047Z" fill="#1A1916"/>
<path d="M179.445 4.58176C180.307 4.8679 181.745 4.58176 182.176 4.29561C182.367 3.91409 182.636 3.06519 182.176 2.72182C181.601 2.2926 181.457 2.43567 180.595 2.72182C179.905 2.95073 178.295 3.86639 177.577 4.29561C177.912 4.29561 178.755 4.35284 179.445 4.58176Z" fill="#1A1916"/>
<path d="M190.655 4.29561C190.08 4.00947 189.793 3.29413 189.937 2.72182C190.971 2.14951 193.625 3.53255 194.823 4.29561C194.583 4.39099 194.018 4.58176 193.673 4.58176C193.242 4.58176 191.23 4.58176 190.655 4.29561Z" fill="#1A1916"/>
<path d="M199.422 9.87544C199.135 10.0185 197.985 11.02 197.841 11.5923C198.128 11.8784 198.962 12.5366 199.997 12.88C201.032 13.2233 203.59 14.3584 204.74 14.883C203.494 13.5 200.974 10.6481 200.859 10.3047C200.715 9.87548 199.709 9.73237 199.422 9.87544Z" fill="#1A1916"/>
<path opacity="0.3" d="M200.185 67.3104C199.456 70.499 198.731 73.3742 198.418 73.6865C197.699 74.4018 191.95 79.9817 183.758 79.1232C175.566 78.2648 173.267 71.1112 172.405 67.6775C172.091 66.4288 170.499 60.6792 168.54 53.6586C172.69 62.9647 177.646 72.8104 180.165 73.8294C184.764 75.6894 190.513 76.8339 195.4 73.8294C196.994 72.849 198.659 70.3278 200.185 67.3104Z" fill="black"/>
<path d="M175.708 19.3192V14.884C175.708 14.4548 177.289 14.0255 178.008 14.4548C178.583 14.7981 178.535 16.6008 178.439 17.4593C178.535 18.0793 178.583 19.3764 178.008 19.6054C177.433 19.8343 176.235 19.51 175.708 19.3192Z" fill="#DADADA"/>
<path d="M193.817 17.4593C193.932 17.4593 194.152 15.7424 194.248 14.884C194.679 14.1687 196.547 14.4548 196.547 14.884V18.8899C196.547 20.3206 195.541 19.6054 194.966 19.6054C194.392 19.6054 194.248 19.6054 193.817 19.3192C193.386 19.0331 193.673 17.4593 193.817 17.4593Z" fill="#DADADA"/>
<path d="M179.445 66.5329L179.014 68.8221L178.439 71.3974C178.966 71.5881 180.163 71.9697 180.738 71.9697C181.457 71.9697 180.738 70.9682 181.169 69.9666C181.514 69.1654 181.888 68.8698 182.032 68.8221V67.2483C181.84 67.0098 181.313 66.5329 180.738 66.5329H179.445Z" fill="#DADADA"/>
<path d="M193.673 71.6835L191.805 72.3989C191.46 72.3989 191.182 70.7774 191.086 69.9666C190.894 69.8236 190.511 69.3944 190.511 68.8221C190.511 68.2498 189.936 67.5344 189.649 67.2483L190.511 66.8191C190.799 66.676 191.805 66.5329 192.236 66.5329C192.581 66.5329 192.859 67.0098 192.954 67.2483L193.673 71.6835Z" fill="#DADADA"/>
<path d="M87.7521 124.191L77.6918 23.3252L82.8657 22.6099L89.3331 91.8567L100.399 132.918C100.831 140.644 101.693 156.182 101.693 156.525C101.693 156.954 105.286 191.864 105.573 195.584C105.861 199.304 108.448 234.07 109.885 240.222C111.322 246.374 120.089 252.097 131.011 256.246C141.934 260.395 159.755 262.255 161.911 262.685C164.067 263.114 165.217 263.543 165.36 264.545C165.504 265.546 165.648 268.264 163.492 272.127C161.336 275.99 158.318 278.136 155.731 277.993C153.144 277.85 135.467 275.561 121.095 270.267C106.723 264.974 99.2496 258.965 96.6627 257.105C94.0758 255.245 93.3572 246.517 92.926 242.082C92.5811 238.534 87.4168 187.095 84.8778 161.819L87.7521 124.191Z" fill="#C4C4C4"/>
<path opacity="0.1" d="M78.823 23.1677L86.7461 103.874L90.6265 132.488L86.7461 162.247C89.6205 190.623 95.4267 247.919 95.6567 250.093C95.9441 252.812 98.6748 256.818 103.705 259.536C104.543 259.989 105.41 260.486 106.337 261.018C110.975 263.677 117.143 267.214 128.999 270.553C143.228 274.559 153.863 275.989 156.162 276.132C157.276 276.202 158.868 276.204 160.249 276.185C158.759 277.437 157.178 278.072 155.731 277.992C153.144 277.849 135.467 275.56 121.095 270.266C107.961 265.429 100.589 259.994 97.4414 257.674C97.1447 257.455 96.8856 257.264 96.6627 257.104C94.1969 255.331 93.4286 247.319 92.9887 242.732C92.967 242.506 92.9462 242.289 92.926 242.081C92.5811 238.533 87.4168 187.094 84.8778 161.818L87.7521 124.19L77.6918 23.3241L78.823 23.1677Z" fill="black"/>
<path d="M82.4596 161.119C82.6649 160.954 82.8789 160.782 83.1012 160.604C87.0254 157.456 93.5349 152.234 100.111 146.078C109.741 137.065 119.657 120.182 120.951 117.607C120.961 117.586 120.971 117.565 120.981 117.544C121.64 118.116 122.334 118.953 122.675 120.039C123.394 122.328 123.825 127.336 123.25 129.196C122.767 130.758 119.646 135.654 117.809 138.537C117.459 139.085 117.156 139.56 116.926 139.926C116.028 141.356 113.559 144.295 111.377 146.892C110.067 148.451 108.861 149.887 108.16 150.799C106.665 152.745 103.034 154.949 101.405 155.807C101.453 153.995 101.347 150.456 100.543 150.799C100.195 150.948 99.4018 152.018 98.3405 153.449C96.3289 156.162 93.3543 160.174 90.626 161.673C87.3127 163.493 83.8197 162.073 82.4596 161.119Z" fill="#CECECE"/>
<g opacity="0.3">
<path d="M85.3321 162.341C86.8878 162.695 88.7854 162.685 90.6275 161.673C93.3558 160.174 96.3304 156.162 98.342 153.449C98.9825 152.585 99.5254 151.853 99.9315 151.376C99.7969 151.284 99.6212 151.229 99.3944 151.229C98.1009 151.229 94.6517 154.662 93.7894 156.379C92.9271 158.096 90.6276 160.385 89.0467 161.101C88.2113 161.479 86.6611 161.961 85.3321 162.341Z" fill="black"/>
<path d="M101.556 155.727L106.58 150.084C107.778 148.844 110.288 146.193 110.748 145.506C110.823 145.395 111 145.136 111.254 144.765C112.966 142.266 118.152 134.697 118.653 133.202C118.886 132.506 119.425 131.599 119.994 130.643C120.83 129.238 121.729 127.727 121.815 126.62C121.958 124.76 121.383 121.184 120.952 120.325C120.743 119.909 120.171 119.892 119.614 120.007C120.275 118.874 120.735 118.039 120.952 117.607C120.963 117.586 120.973 117.565 120.983 117.544C121.641 118.116 122.336 118.953 122.677 120.039C123.395 122.328 123.826 127.336 123.252 129.196C122.769 130.758 119.648 135.654 117.81 138.537C117.461 139.085 117.158 139.56 116.928 139.926C116.03 141.356 113.561 144.295 111.379 146.892C110.069 148.451 108.862 149.887 108.161 150.799C106.711 152.688 103.248 154.819 101.556 155.727Z" fill="black"/>
</g>
<path d="M52.1086 146.939C52.8272 148.227 74.0976 163.106 74.6725 163.535C75.8222 164.012 78.4091 164.68 79.5588 163.535C80.996 162.105 90.4814 155.094 100.111 146.081C109.74 137.067 119.656 120.185 120.95 117.609C122.243 115.034 119.944 110.027 118.075 108.453C116.207 106.879 97.9548 96.0055 96.2302 95.147C94.5056 94.2886 92.7809 94.7178 90.4814 96.0055C88.1819 97.2931 82.8644 106.307 79.5588 110.027C76.2533 113.746 59.8694 131.058 55.1267 135.636C51.3325 139.299 50.7673 142.218 50.9589 143.219C51.1026 144.03 51.5338 145.909 52.1086 146.939Z" fill="#DDDDDD"/>
<path d="M51.8209 144.363C50.6712 143.104 50.8628 141.644 51.1023 141.072C50.3837 138.64 58.1446 131.343 60.4441 129.197C62.7436 127.051 74.5285 114.175 77.2592 111.456C79.9898 108.738 86.6009 99.2952 87.6069 98.0075C88.613 96.7199 90.1939 95.8615 91.6311 95.8615C93.0682 95.8615 94.218 96.2907 95.9426 96.863C97.6672 97.4352 112.183 106.306 115.92 109.453C119.656 112.601 116.782 117.036 113.764 121.901C110.746 126.765 100.685 138.211 97.2361 141.644C93.7868 145.078 80.421 159.815 77.9778 160.244C75.5346 160.673 72.9476 159.099 70.6481 157.955C68.3486 156.81 53.2581 145.937 51.8209 144.363Z" fill="#F2F2F2"/>
<path opacity="0.1" d="M52.5481 145.023C52.6701 145.235 52.8224 145.446 53.0107 145.653C54.4479 147.226 69.5384 158.1 71.8379 159.245C72.1309 159.39 72.4285 159.543 72.7299 159.698C74.7942 160.758 77.0356 161.908 79.1676 161.534C81.0391 161.205 89.3196 152.481 94.6427 146.873C96.2687 145.16 97.6188 143.738 98.4259 142.934C101.875 139.501 111.935 128.055 114.954 123.19C115.016 123.09 115.078 122.989 115.141 122.889C118.088 118.143 120.769 113.826 117.109 110.743C117.073 110.712 117.035 110.681 116.996 110.649C118.917 113.608 116.537 117.44 113.953 121.601C113.891 121.702 113.828 121.802 113.766 121.903C110.748 126.767 100.687 138.213 97.2381 141.647C96.431 142.45 95.0809 143.873 93.4549 145.586C88.1318 151.194 79.8513 159.917 77.9798 160.246C75.8479 160.621 73.6065 159.47 71.5421 158.41C71.2407 158.255 70.9431 158.103 70.6502 157.957C68.5627 156.918 55.9344 147.861 52.5481 145.023Z" fill="black"/>
<path opacity="0.2" d="M54.697 139.785C52.9723 141.273 53.4035 142.694 53.8346 143.218C51.8225 141.645 53.5473 139.355 54.697 138.64C55.8467 137.925 64.4699 127.91 65.9071 126.479C67.3443 125.048 75.8237 116.178 76.9734 115.033C78.1232 113.889 90.0518 97.7215 90.0518 97.2923C90.0518 96.8631 91.6327 96.577 92.3513 96.8631C93.0699 97.1493 99.1061 99.8676 100.831 101.012C102.555 102.157 111.322 107.88 114.053 110.312C116.237 112.258 116.209 113.793 115.921 114.318C115.873 114.032 115.691 113.288 115.346 112.601C114.915 111.743 112.903 110.169 108.448 107.021C103.993 103.874 95.2257 99.2953 93.5011 98.2938C91.7764 97.2923 90.7704 98.4369 90.0518 99.2953C89.3332 100.154 77.9794 115.606 76.5423 117.036C75.1051 118.467 56.8527 137.925 54.697 139.785Z" fill="black"/>
<path fill-rule="evenodd" clip-rule="evenodd" d="M278.04 83.8418C278.038 83.832 278.036 83.8223 278.034 83.8127L277.753 83.8747C277.755 83.881 277.756 83.8874 277.757 83.8937C277.184 84.0031 276.589 84.1398 275.997 84.2757L275.993 84.2767C275.27 84.4428 274.33 84.831 273.434 85.2557L273.424 85.2545L273.425 85.2601C273.377 85.2827 273.33 85.3054 273.282 85.3281C272.339 85.7819 271.452 86.2703 270.922 86.5821C270.866 86.615 270.839 86.6812 270.857 86.7435L271.575 89.3188C271.576 89.3234 271.578 89.328 271.58 89.3324L273.133 93.3087C273.073 93.6774 273.032 93.8866 273.011 93.9671L273.29 94.0365C273.301 93.9949 273.316 93.9255 273.335 93.8252L273.75 94.8877C273.701 94.88 273.654 94.8718 273.61 94.863L273.554 95.1436C273.648 95.1625 273.754 95.1789 273.869 95.1932L274.09 95.7598C274.011 96.0507 273.938 96.3144 273.875 96.5384L273.823 96.7202H274.466L274.842 97.6841C274.806 97.7837 274.772 97.8751 274.741 97.9576L274.985 98.0486L275.604 99.6336C275.622 99.6808 275.664 99.7148 275.715 99.7229C275.765 99.7311 275.816 99.7122 275.848 99.6733C276.567 98.8141 278.24 96.7186 279.166 95.2214C279.706 94.3471 280.431 92.7929 281.078 91.3149C281.132 91.3029 281.183 91.2912 281.232 91.2797L281.183 91.0741C281.197 91.0435 281.21 91.013 281.223 90.9825C281.907 89.407 282.482 87.9749 282.626 87.6168C282.779 87.2368 282.852 86.7164 282.852 86.2581C282.852 86.0278 282.833 85.8075 282.795 85.6232C282.758 85.446 282.697 85.2761 282.594 85.1733C282.534 85.1136 282.48 85.0379 282.408 84.9377L282.403 84.93C282.331 84.829 282.246 84.7108 282.131 84.5873C282.035 84.4833 281.919 84.377 281.774 84.2725L281.727 84.1376C281.694 84.149 281.66 84.1606 281.624 84.1723C281.55 84.1261 281.47 84.0804 281.382 84.0356C281.367 83.9584 281.353 83.8852 281.34 83.8167L281.058 83.8707C281.059 83.8776 281.061 83.8845 281.062 83.8915C281.029 83.8785 280.996 83.8657 280.962 83.8529C280.353 83.6256 279.569 83.6297 278.72 83.7377C278.499 83.7658 278.272 83.8011 278.04 83.8418ZM278.1 84.1219C278.323 84.0827 278.543 84.0486 278.756 84.0215C278.916 84.0012 279.071 83.9849 279.222 83.9733C279.291 84.1849 279.373 84.4565 279.459 84.7665C279.08 84.8528 278.678 84.9358 278.263 85.0107C278.207 84.6758 278.151 84.3758 278.1 84.1219ZM281.125 84.2299C281.044 84.1928 280.956 84.1564 280.861 84.1209C280.492 83.9831 280.037 83.9374 279.519 83.9562C279.584 84.1614 279.66 84.4151 279.739 84.7012C280.266 84.5753 280.743 84.4451 281.142 84.3247C281.137 84.2926 281.131 84.2609 281.125 84.2299ZM281.582 84.4876C281.545 84.4994 281.508 84.5113 281.469 84.5234C281.535 84.8981 281.604 85.325 281.669 85.7679C281.959 85.6393 282.205 85.5118 282.405 85.3924C282.401 85.386 282.396 85.3804 282.391 85.3756C282.313 85.2985 282.246 85.2045 282.181 85.1126L282.169 85.0958C282.097 84.9956 282.021 84.8904 281.92 84.7814C281.832 84.6864 281.723 84.5869 281.582 84.4876ZM282.51 85.6635C282.29 85.7915 282.023 85.9269 281.712 86.062C281.729 86.1865 281.746 86.3116 281.762 86.4365C281.795 86.695 281.826 86.9538 281.852 87.2057C282.109 87.097 282.331 86.9912 282.517 86.8929C282.548 86.6848 282.564 86.4663 282.564 86.2581C282.564 86.0412 282.547 85.8413 282.513 85.6814C282.512 85.6753 282.511 85.6694 282.51 85.6635ZM282.444 87.2514C282.277 87.3329 282.089 87.4178 281.881 87.504C281.915 87.8866 281.936 88.2452 281.936 88.552C282.144 88.0455 282.295 87.6705 282.359 87.5105C282.391 87.4314 282.419 87.3442 282.444 87.2514ZM281.67 89.1963C281.334 89.337 280.873 89.4955 280.302 89.6479C280.28 90.1527 280.25 90.6861 280.217 91.1993C280.456 91.1542 280.677 91.1096 280.873 91.067C280.902 91.0008 280.931 90.9349 280.959 90.8691C281.217 90.2743 281.46 89.6999 281.67 89.1963ZM280.732 91.3894C280.567 91.4236 280.388 91.4587 280.197 91.494C280.166 91.9605 280.133 92.4015 280.104 92.7782C280.314 92.3281 280.526 91.8574 280.732 91.3894ZM279.713 93.596C279.29 93.6425 278.7 93.6913 278.01 93.7239C277.894 94.1248 277.767 94.5312 277.634 94.9349C278.12 94.9122 278.557 94.8851 278.889 94.8607L278.906 95.0948C278.911 95.087 278.916 95.0792 278.921 95.0715C279.155 94.6921 279.427 94.1788 279.713 93.596ZM278.873 95.1488C278.518 95.1745 278.051 95.2028 277.537 95.2258C277.511 95.3032 277.485 95.3804 277.458 95.4574C277.344 95.7882 277.227 96.1153 277.11 96.4341H277.894V96.5829C278.254 96.0864 278.595 95.5925 278.873 95.1488ZM277.794 96.7202H277.004C276.704 97.5182 276.406 98.2536 276.151 98.8515C276.624 98.265 277.227 97.4946 277.794 96.7202ZM275.716 99.1326C275.992 98.5061 276.342 97.6597 276.697 96.7202H275.485C275.362 97.0828 275.248 97.4079 275.149 97.6806L275.716 99.1326ZM274.99 97.2728C275.05 97.1022 275.115 96.9172 275.182 96.7202H274.774L274.99 97.2728ZM274.662 96.4341H275.278C275.399 96.0746 275.526 95.6831 275.654 95.2728C275.257 95.2732 274.873 95.266 274.526 95.2477C274.48 95.4192 274.436 95.5851 274.393 95.7437L274.662 96.4341ZM274.265 96.2078C274.244 96.2862 274.223 96.3617 274.203 96.4341H274.354L274.265 96.2078ZM274.216 95.2928C274.222 95.2716 274.228 95.2503 274.233 95.229C274.219 95.2279 274.205 95.2267 274.19 95.2256L274.216 95.2928ZM274.074 94.928C274.149 94.9353 274.227 94.9418 274.308 94.9477C274.412 94.5517 274.521 94.1321 274.626 93.7107C274.272 93.6892 273.916 93.6603 273.564 93.6225L274.074 94.928ZM273.446 93.3215C273.86 93.369 274.279 93.4038 274.696 93.4282L274.711 93.3671C274.825 92.8989 274.933 92.4378 275.025 92.0131C274.548 92.0144 274.076 91.999 273.62 91.9624C273.545 92.5192 273.481 92.9521 273.429 93.2774L273.446 93.3215ZM273.22 92.7429C273.255 92.5106 273.292 92.2428 273.334 91.9364C273.182 91.9209 273.032 91.9028 272.884 91.882L273.22 92.7429ZM272.764 91.5748C272.962 91.6058 273.164 91.6316 273.371 91.6526C273.393 91.4861 273.416 91.3096 273.439 91.1226C273.473 90.8561 273.499 90.5698 273.518 90.2716C273.093 90.2479 272.658 90.2125 272.213 90.1639L272.764 91.5748ZM272.001 89.6217V88.5289C271.88 88.5089 271.758 88.4875 271.635 88.4648L271.85 89.2354L272.001 89.6217ZM271.549 88.1573C271.701 88.1866 271.851 88.2137 272.001 88.2388V86.8278C271.801 86.7893 271.599 86.7473 271.395 86.7017L271.411 86.6309C271.322 86.6809 271.24 86.7284 271.163 86.7729L271.549 88.1573ZM271.692 86.4735C271.796 86.4953 271.899 86.5163 272.001 86.5363V86.3047C271.894 86.3625 271.791 86.419 271.692 86.4735ZM272.288 86.1512V86.5904C272.709 86.6663 273.12 86.727 273.522 86.7738C273.501 86.3018 273.475 85.8853 273.45 85.5654C273.436 85.5722 273.421 85.579 273.407 85.5858C273.018 85.7733 272.637 85.9669 272.288 86.1512ZM273.99 85.3137C274.266 85.3351 274.549 85.3456 274.837 85.3467C274.816 85.2165 274.796 85.093 274.776 84.9777C274.52 85.0802 274.256 85.1937 273.99 85.3137ZM275.05 84.8716C275.074 85.0164 275.1 85.1751 275.127 85.3446C275.571 85.3368 276.024 85.308 276.474 85.2635C276.432 84.9752 276.39 84.7141 276.35 84.4885C276.252 84.5107 276.155 84.5331 276.057 84.5555C275.757 84.6245 275.415 84.7345 275.05 84.8716ZM276.63 84.4247C277.033 84.3338 277.431 84.2473 277.817 84.1737C277.868 84.4265 277.924 84.7258 277.98 85.0601C277.581 85.1274 277.172 85.1864 276.76 85.2331C276.716 84.9317 276.672 84.6591 276.63 84.4247ZM278.309 85.2932C278.735 85.2166 279.146 85.1315 279.533 85.0431C279.641 85.457 279.75 85.9215 279.84 86.3946C279.427 86.5018 278.978 86.5985 278.496 86.6779C278.44 86.1837 278.376 85.7157 278.309 85.2932ZM278.527 86.9628C279.015 86.8829 279.471 86.7855 279.891 86.6771C279.958 87.0681 280.009 87.4593 280.033 87.827C279.6 87.9458 279.129 88.0567 278.626 88.1526C278.602 87.7485 278.568 87.3491 278.527 86.9628ZM280.169 86.6022C280.236 86.9893 280.288 87.3781 280.316 87.7469C280.787 87.6089 281.209 87.4628 281.574 87.3189C281.547 87.0456 281.514 86.7606 281.477 86.4731C281.464 86.3741 281.451 86.275 281.437 86.1762C281.066 86.3245 280.642 86.4699 280.169 86.6022ZM278.642 88.4408C279.143 88.3465 279.613 88.2372 280.047 88.1198C280.049 88.1736 280.049 88.2266 280.049 88.2789C280.049 88.6151 280.039 89.0068 280.023 89.4244C279.621 89.5259 279.167 89.6235 278.668 89.7094C278.673 89.2904 278.663 88.8643 278.642 88.4408ZM280.337 88.2789C280.337 88.5952 280.328 88.9597 280.314 89.3482C280.879 89.1937 281.326 89.0349 281.638 88.8984C281.662 88.5696 281.645 88.1203 281.602 87.6155C281.23 87.7592 280.804 87.9039 280.332 88.0402C280.335 88.1212 280.337 88.2009 280.337 88.2789ZM278.662 90.0007C279.156 89.9171 279.607 89.8221 280.011 89.7225C279.988 90.2226 279.958 90.7484 279.925 91.2526C279.505 91.3273 279.036 91.4016 278.535 91.4685C278.568 91.2596 278.594 91.0586 278.612 90.8672C278.637 90.5856 278.654 90.2955 278.662 90.0007ZM278.485 91.7639C278.996 91.697 279.475 91.6221 279.906 91.5466C279.859 92.2339 279.81 92.8614 279.772 93.3014C279.368 93.3481 278.785 93.3987 278.092 93.4334C278.253 92.8524 278.389 92.2875 278.485 91.7639ZM278.186 91.8017C278.088 92.317 277.951 92.8736 277.79 93.4472C277.379 93.4641 276.936 93.4749 276.474 93.476C276.613 92.9545 276.74 92.4338 276.844 91.9361C277.304 91.9004 277.754 91.8543 278.186 91.8017ZM276.546 91.9577C276.441 92.4491 276.314 92.9622 276.177 93.4753C275.789 93.4726 275.39 93.4628 274.988 93.4437L274.99 93.4348C275.11 92.9445 275.224 92.4578 275.32 92.0102C275.729 92.0033 276.14 91.9849 276.546 91.9577ZM276.099 93.7608C275.713 93.7572 275.317 93.7466 274.918 93.7268C274.813 94.1476 274.705 94.5676 274.601 94.965C274.949 94.9818 275.338 94.9879 275.742 94.9864C275.863 94.5882 275.984 94.1758 276.099 93.7608ZM275.581 96.4341C275.702 96.0725 275.828 95.6805 275.955 95.2711C276.033 95.2703 276.111 95.2693 276.189 95.268C276.539 95.2623 276.892 95.2519 277.229 95.2387C277.215 95.2808 277.201 95.3228 277.186 95.3647C277.061 95.7277 276.933 96.0862 276.804 96.4341H275.581ZM277.707 93.7368C277.59 94.1373 277.462 94.5438 277.327 94.9484C276.958 94.9635 276.57 94.9756 276.185 94.9819C276.137 94.9827 276.09 94.9833 276.043 94.9839C276.164 94.5862 276.283 94.1753 276.396 93.7622C276.855 93.7622 277.296 93.7526 277.707 93.7368ZM275.086 91.7268C274.601 91.7296 274.121 91.7151 273.658 91.6784C273.679 91.5146 273.702 91.3413 273.725 91.1581C273.759 90.8847 273.785 90.5912 273.805 90.286C274.326 90.309 274.83 90.3146 275.315 90.3058C275.313 90.3426 275.31 90.378 275.307 90.4121C275.278 90.7312 275.197 91.1917 275.086 91.7268ZM275.325 90.0195C274.842 90.0285 274.34 90.0231 273.821 90.0003C273.841 89.5896 273.851 89.1628 273.852 88.7387C274.335 88.7691 274.808 88.7803 275.268 88.7751C275.306 89.2412 275.328 89.6693 275.325 90.0195ZM275.244 88.4892C274.791 88.4938 274.327 88.4823 273.852 88.4519C273.85 87.9822 273.839 87.5209 273.823 87.0941C274.26 87.1375 274.685 87.1649 275.099 87.1783C275.117 87.3273 275.136 87.4771 275.153 87.6266C275.187 87.919 275.218 88.2092 275.244 88.4892ZM273.565 88.4313C273.562 87.9575 273.551 87.4925 273.534 87.0632C273.128 87.0169 272.713 86.9567 272.288 86.8811V88.2845C272.72 88.3496 273.146 88.3979 273.565 88.4313ZM273.565 88.7183C273.146 88.6855 272.72 88.6379 272.288 88.5738V89.8843C272.713 89.9299 273.129 89.9633 273.534 89.9859C273.554 89.5739 273.564 89.1449 273.565 88.7183ZM275.061 86.8907C274.657 86.8766 274.24 86.8488 273.811 86.8053C273.79 86.3282 273.764 85.9057 273.739 85.5787C274.109 85.6158 274.492 85.6327 274.881 85.6328C274.941 86.0181 275.003 86.4475 275.061 86.8907ZM275.352 86.8986C275.294 86.4527 275.232 86.0197 275.172 85.6298C275.615 85.6208 276.066 85.5915 276.514 85.547C276.57 85.9531 276.623 86.4027 276.668 86.876C276.247 86.8988 275.808 86.9073 275.352 86.8986ZM276.955 86.8581C276.91 86.3807 276.856 85.9269 276.8 85.5165C277.215 85.4694 277.626 85.4101 278.026 85.3426C278.092 85.7636 278.157 86.23 278.212 86.7222C277.814 86.7806 277.394 86.8271 276.955 86.8581ZM276.981 87.1431C277.421 87.1119 277.842 87.0654 278.243 87.0069C278.283 87.3959 278.317 87.7982 278.342 88.2045C277.934 88.2758 277.506 88.3367 277.062 88.3838C277.052 88.1533 277.039 87.9237 277.024 87.6971C277.011 87.5103 276.997 87.3253 276.981 87.1431ZM277.072 88.6704C277.518 88.6237 277.947 88.5632 278.357 88.4923C278.377 88.9151 278.386 89.34 278.38 89.7568C277.972 89.8209 277.536 89.8769 277.074 89.9208C277.087 89.5111 277.085 89.0905 277.072 88.6704ZM277.062 90.2093C277.524 90.1662 277.962 90.111 278.373 90.0475C278.364 90.3176 278.349 90.5831 278.325 90.8413C278.306 91.0514 278.277 91.2741 278.238 91.5069C277.809 91.5603 277.361 91.6075 276.903 91.6444C276.986 91.2029 277.036 90.7169 277.062 90.2093ZM276.773 90.2344C276.746 90.7456 276.693 91.2312 276.606 91.6668C276.201 91.6952 275.789 91.7149 275.38 91.723C275.487 91.2061 275.564 90.7572 275.593 90.438C275.597 90.3937 275.601 90.3472 275.604 90.2988C276.008 90.2866 276.398 90.2645 276.773 90.2344ZM276.785 89.9463C276.41 89.9771 276.018 89.9997 275.612 90.0123C275.615 89.6563 275.594 89.229 275.556 88.7697C275.978 88.7586 276.388 88.7341 276.785 88.6983C276.798 89.1196 276.799 89.5394 276.785 89.9463ZM276.775 88.4119C276.373 88.4484 275.958 88.4732 275.532 88.4841C275.505 88.1934 275.473 87.8935 275.439 87.5936C275.423 87.4575 275.406 87.3212 275.389 87.1854C275.84 87.1931 276.275 87.1841 276.694 87.1612C276.71 87.3437 276.724 87.5291 276.737 87.7163C276.752 87.9465 276.765 88.179 276.775 88.4119ZM280.118 86.3193C280.599 86.1838 281.026 86.0348 281.396 85.8842C281.33 85.4316 281.259 84.9933 281.193 84.6085C280.797 84.7268 280.33 84.8543 279.813 84.9777C279.92 85.3884 280.028 85.8487 280.118 86.3193Z" fill="black"/>
<path fill-rule="evenodd" clip-rule="evenodd" d="M286.359 97.232C286.337 97.1833 286.288 97.1514 286.234 97.1495C286.18 97.1476 286.13 97.176 286.104 97.223C285.862 97.6565 285.292 98.781 284.943 99.8226C284.764 100.358 284.68 101.175 284.645 101.965C284.61 102.759 284.624 103.543 284.648 104.024C284.649 104.041 284.653 104.058 284.66 104.073C284.694 104.152 284.738 104.232 284.792 104.313V104.446C284.822 104.446 284.854 104.446 284.887 104.445C284.969 104.553 285.065 104.661 285.169 104.767C285.397 105.002 285.675 105.241 285.964 105.467C286.544 105.92 287.182 106.331 287.593 106.572C287.639 106.599 287.695 106.599 287.74 106.572C287.785 106.545 287.812 106.496 287.81 106.444C287.762 105.063 287.637 102.005 287.522 100.855C287.463 100.266 287.255 99.5375 287.022 98.873C286.79 98.2064 286.529 97.5938 286.359 97.232ZM285.251 104.434C285.29 104.478 285.331 104.523 285.375 104.568C285.474 104.67 285.584 104.774 285.701 104.877C285.751 104.749 285.799 104.585 285.846 104.392C285.636 104.412 285.433 104.426 285.251 104.434ZM285.931 105.073C286 105.13 286.07 105.186 286.142 105.242C286.298 105.364 286.459 105.483 286.618 105.597L287.477 105.312L287.48 105.321C287.465 104.93 287.447 104.504 287.427 104.073C287.07 104.214 286.6 104.303 286.15 104.359L286.149 104.359C286.082 104.65 286.01 104.895 285.931 105.073ZM287.413 103.767C287.391 103.298 287.368 102.83 287.343 102.399C287.232 102.441 287.11 102.477 286.982 102.508C286.813 102.549 286.63 102.583 286.443 102.611C286.386 103.052 286.323 103.472 286.255 103.845C286.241 103.919 286.227 103.992 286.213 104.062C286.671 104.001 287.112 103.905 287.413 103.767ZM287.326 102.097C287.296 101.605 287.266 101.18 287.236 100.884C287.236 100.88 287.235 100.876 287.235 100.872L286.623 100.979C286.588 101.342 286.55 101.711 286.509 102.073C286.499 102.154 286.49 102.235 286.48 102.316C286.632 102.291 286.778 102.263 286.914 102.23C287.074 102.191 287.213 102.146 287.326 102.097ZM287.195 100.588C287.142 100.271 287.054 99.9228 286.948 99.5704V99.5816H286.739C286.714 99.9261 286.684 100.299 286.65 100.684L287.195 100.588ZM286.862 99.2955C286.834 99.2102 286.806 99.1252 286.777 99.0407C286.771 99.1231 286.766 99.2081 286.76 99.2955H286.862ZM286.61 98.5773C286.473 98.2124 286.334 97.8789 286.218 97.6157C286.009 98.0144 285.704 98.6415 285.443 99.2955H286.471C286.49 99.0298 286.505 98.7857 286.517 98.5722L286.61 98.5773ZM285.333 99.5816C285.292 99.6925 285.253 99.8033 285.216 99.9131C285.122 100.192 285.055 100.561 285.008 100.972L286.356 100.735C286.393 100.333 286.425 99.9419 286.451 99.5816H285.333ZM284.978 101.268C284.958 101.499 284.943 101.738 284.932 101.977C284.925 102.133 284.92 102.289 284.917 102.442C285.248 102.437 285.717 102.414 286.176 102.358L286.185 102.357C286.198 102.252 286.211 102.147 286.223 102.04C286.262 101.706 286.297 101.366 286.329 101.031L284.978 101.268ZM284.912 102.728C284.908 103.219 284.919 103.665 284.934 103.983C284.96 104.038 284.993 104.096 285.033 104.156C285.28 104.149 285.589 104.132 285.912 104.098C285.933 104.002 285.952 103.9 285.972 103.794C286.035 103.448 286.094 103.059 286.148 102.65C285.694 102.702 285.238 102.724 284.912 102.728ZM287.492 105.609L286.912 105.801C287.128 105.947 287.333 106.079 287.513 106.19C287.507 106.013 287.5 105.818 287.492 105.609Z" fill="black"/>
<path opacity="0.3" d="M113.541 75.681C113.541 85.6905 105.39 93.8087 95.3293 93.8087C85.2689 93.8087 77.1173 85.6905 77.1173 75.681C77.1173 65.6714 85.2689 57.5532 95.3293 57.5532C105.39 57.5532 113.541 65.6714 113.541 75.681ZM302.158 193.408C302.158 203.418 294.006 211.536 283.946 211.536C273.885 211.536 265.734 203.418 265.734 193.408C265.734 183.399 273.885 175.281 283.946 175.281C294.006 175.281 302.158 183.399 302.158 193.408ZM200.365 217.252C200.365 227.261 192.213 235.38 182.153 235.38C172.092 235.38 163.941 227.261 163.941 217.252C163.941 207.242 172.092 199.124 182.153 199.124C192.213 199.124 200.365 207.242 200.365 217.252ZM89.5899 193.408C89.5899 203.418 81.4383 211.536 71.378 211.536C61.3177 211.536 53.166 203.418 53.166 193.408C53.166 183.399 61.3177 175.281 71.378 175.281C81.4383 175.281 89.5899 183.399 89.5899 193.408ZM73.1234 126.348C73.1234 136.358 64.9718 144.476 54.9114 144.476C44.8511 144.476 36.6995 136.358 36.6995 126.348C36.6995 116.339 44.8511 108.221 54.9114 108.221C64.9718 108.221 73.1234 116.339 73.1234 126.348ZM67.1356 250.037C67.1356 260.046 58.9839 268.164 48.9236 268.164C38.8633 268.164 30.7117 260.046 30.7117 250.037C30.7117 240.027 38.8633 231.909 48.9236 231.909C58.9839 231.909 67.1356 240.027 67.1356 250.037ZM149.468 126.348C149.468 136.358 141.317 144.476 131.256 144.476C121.196 144.476 113.044 136.358 113.044 126.348C113.044 116.339 121.196 108.221 131.256 108.221C141.317 108.221 149.468 116.339 149.468 126.348ZM143.48 250.037C143.48 260.046 135.329 268.164 125.268 268.164C115.208 268.164 107.056 260.046 107.056 250.037C107.056 240.027 115.208 231.909 125.268 231.909C135.329 231.909 143.48 240.027 143.48 250.037ZM264.734 126.348C264.734 136.358 256.582 144.476 246.522 144.476C236.462 144.476 228.31 136.358 228.31 126.348C228.31 116.339 236.462 108.221 246.522 108.221C256.582 108.221 264.734 116.339 264.734 126.348ZM264.734 250.037C264.734 260.046 256.582 268.164 246.522 268.164C236.462 268.164 228.31 260.046 228.31 250.037C228.31 240.027 236.462 231.909 246.522 231.909C256.582 231.909 264.734 240.027 264.734 250.037ZM324.612 126.348C324.612 136.358 316.46 144.476 306.4 144.476C296.34 144.476 288.188 136.358 288.188 126.348C288.188 116.339 296.34 108.221 306.4 108.221C316.46 108.221 324.612 116.339 324.612 126.348ZM324.612 250.037C324.612 260.046 316.46 268.164 306.4 268.164C296.34 268.164 288.188 260.046 288.188 250.037C288.188 240.027 296.34 231.909 306.4 231.909C316.46 231.909 324.612 240.027 324.612 250.037ZM279.703 75.681C279.703 85.6905 271.552 93.8087 261.491 93.8087C251.431 93.8087 243.279 85.6905 243.279 75.681C243.279 65.6714 251.431 57.5532 261.491 57.5532C271.552 57.5532 279.703 65.6714 279.703 75.681Z" stroke="#326BFF"/>
<defs>
<linearGradient id="paint0_linear" x1="177.724" y1="25.9406" x2="177.724" y2="44.7052" gradientUnits="userSpaceOnUse">
<stop stop-color="#E2E2E2"/>
<stop offset="0.520833" stop-color="#FDFDFD"/>
<stop offset="1" stop-color="#E2E2E2"/>
</linearGradient>
<linearGradient id="paint1_linear" x1="178.094" y1="204.079" x2="178.094" y2="210.415" gradientUnits="userSpaceOnUse">
<stop stop-color="#E2E2E2"/>
<stop offset="0.520833" stop-color="#FDFDFD"/>
<stop offset="1" stop-color="#E2E2E2"/>
</linearGradient>
<linearGradient id="paint2_linear" x1="170.871" y1="41.5404" x2="187.028" y2="41.5404" gradientUnits="userSpaceOnUse">
<stop stop-color="#E2E2E2"/>
<stop offset="0.520833" stop-color="#FDFDFD"/>
<stop offset="1" stop-color="#E2E2E2"/>
</linearGradient>
<linearGradient id="paint3_linear" x1="13.7145" y1="41.4784" x2="19.1" y2="41.4784" gradientUnits="userSpaceOnUse">
<stop stop-color="#E2E2E2" stop-opacity="0"/>
<stop offset="0.520833" stop-color="#FDFDFD" stop-opacity="0.33"/>
<stop offset="1" stop-color="#E2E2E2" stop-opacity="0"/>
</linearGradient>
<linearGradient id="paint4_linear" x1="29.3801" y1="30.6166" x2="34.7413" y2="30.6166" gradientUnits="userSpaceOnUse">
<stop stop-color="#E2E2E2" stop-opacity="0"/>
<stop offset="0.520833" stop-color="#FDFDFD" stop-opacity="0.33"/>
<stop offset="1" stop-color="#E2E2E2" stop-opacity="0"/>
</linearGradient>
<linearGradient id="paint5_linear" x1="340.759" y1="41.4784" x2="346.144" y2="41.4784" gradientUnits="userSpaceOnUse">
<stop stop-color="#E2E2E2" stop-opacity="0"/>
<stop offset="0.520833" stop-color="#FDFDFD" stop-opacity="0.33"/>
<stop offset="1" stop-color="#E2E2E2" stop-opacity="0"/>
</linearGradient>
<radialGradient id="paint6_radial" cx="0" cy="0" r="1" gradientUnits="userSpaceOnUse" gradientTransform="translate(29.8718 40.8046) rotate(-141.073) scale(16.6773 16.254)">
<stop offset="0.583333" stop-color="white" stop-opacity="0"/>
<stop offset="0.767434" stop-color="white" stop-opacity="0.22"/>
<stop offset="1" stop-color="white" stop-opacity="0"/>
</radialGradient>
<radialGradient id="paint7_radial" cx="0" cy="0" r="1" gradientUnits="userSpaceOnUse" gradientTransform="translate(329.961 40.8046) rotate(-37.2706) scale(17.3037 16.6266)">
<stop offset="0.583333" stop-color="white" stop-opacity="0"/>
<stop offset="0.767434" stop-color="white" stop-opacity="0.22"/>
<stop offset="1" stop-color="white" stop-opacity="0"/>
</radialGradient>
</defs>
</svg>
