<svg width="16" height="16" viewBox="0 0 16 16" fill="none" xmlns="http://www.w3.org/2000/svg">
    <path fill-rule="evenodd" clip-rule="evenodd" d="M8 14.5C11.5899 14.5 14.5 11.5899 14.5 8C14.5 4.41015 11.5899 1.5 8 1.5C4.41015 1.5 1.5 4.41015 1.5 8C1.5 11.5899 4.41015 14.5 8 14.5ZM8 16C12.4183 16 16 12.4183 16 8C16 3.58172 12.4183 0 8 0C3.58172 0 0 3.58172 0 8C0 12.4183 3.58172 16 8 16Z" fill="#3DC50D"/>
    <path fill-rule="evenodd" clip-rule="evenodd" d="M10.8779 4.35217C11.2357 4.56088 11.3565 5.02011 11.1478 5.3779L7.64783 11.3779C7.53064 11.5788 7.32689 11.714 7.09623 11.7438C6.86558 11.7736 6.63413 11.6948 6.46967 11.5303L4.46967 9.53033C4.17678 9.23744 4.17678 8.76256 4.46967 8.46967C4.76256 8.17678 5.23744 8.17678 5.53033 8.46967L6.84238 9.78172L9.85217 4.6221C10.0609 4.26431 10.5201 4.14346 10.8779 4.35217Z" fill="#3DC50D"/>
</svg>
