<svg width="16" height="16" viewBox="0 0 16 16" fill="none" xmlns="http://www.w3.org/2000/svg">
<path fill-rule="evenodd" clip-rule="evenodd" d="M7.41603 3.37596C7.18588 3.22254 6.88997 3.20823 6.64611 3.33875C6.40224 3.46926 6.25 3.7234 6.25 4V8C6.25 8.2766 6.40224 8.53074 6.64611 8.66126C6.88997 8.79177 7.18588 8.77747 7.41603 8.62404L10.416 6.62404C10.6247 6.48494 10.75 6.25077 10.75 6C10.75 5.74924 10.6247 5.51506 10.416 5.37596L7.41603 3.37596ZM8.64792 6L7.75 6.59861V5.40139L8.64792 6Z" fill="#798CBD"/>
<path fill-rule="evenodd" clip-rule="evenodd" d="M2 1C0.895431 1 0 1.89543 0 3V13C0 14.1046 0.895431 15 2 15H14C15.1046 15 16 14.1046 16 13V3C16 1.89543 15.1046 1 14 1H2ZM14 2.5H2C1.72386 2.5 1.5 2.72386 1.5 3V9.75H14.5V3C14.5 2.72386 14.2761 2.5 14 2.5ZM1.5 13V11.25H14.5V13C14.5 13.2761 14.2761 13.5 14 13.5H2C1.72386 13.5 1.5 13.2761 1.5 13Z" fill="#798CBD"/>
</svg>
