<svg width="20" height="20" viewBox="0 0 20 20" fill="none" xmlns="http://www.w3.org/2000/svg">
<path fill-rule="evenodd" clip-rule="evenodd" d="M6.5 13.5V15.619L8.36509 14.3135C9.12146 13.784 10.0224 13.5 10.9457 13.5H16C16.8284 13.5 17.5 12.8284 17.5 12V6C17.5 5.17157 16.8284 4.5 16 4.5H4C3.17157 4.5 2.5 5.17157 2.5 6V12C2.5 12.8284 3.17157 13.5 4 13.5H6.5ZM9.22528 15.5423C9.72953 15.1893 10.3301 15 10.9457 15H16C17.6569 15 19 13.6569 19 12V6C19 4.34315 17.6569 3 16 3H4C2.34315 3 1 4.34315 1 6V12C1 13.6569 2.34315 15 4 15H5V18.5L9.22528 15.5423Z" fill="#666666"/>
<path d="M7 9C7 9.55228 6.55228 10 6 10C5.44772 10 5 9.55228 5 9C5 8.44772 5.44772 8 6 8C6.55228 8 7 8.44772 7 9Z" fill="#666666"/>
<path d="M11 9C11 9.55228 10.5523 10 10 10C9.44771 10 9 9.55228 9 9C9 8.44772 9.44771 8 10 8C10.5523 8 11 8.44772 11 9Z" fill="#666666"/>
<path d="M15 9C15 9.55228 14.5523 10 14 10C13.4477 10 13 9.55228 13 9C13 8.44772 13.4477 8 14 8C14.5523 8 15 8.44772 15 9Z" fill="#666666"/>
</svg>
