<svg width="16" height="16" viewBox="0 0 16 16" fill="none" xmlns="http://www.w3.org/2000/svg">
<path d="M0 3.48186C0 1.55888 1.55888 0 3.48187 0H12.5181C14.4411 0 16 1.55888 16 3.48187V12.5181C16 14.4411 14.4411 16 12.5181 16H3.48186C1.55888 16 0 14.4411 0 12.5181V3.48186Z" fill="url(#paint0_linear)"/>
<path d="M5.67864 3.95616V9.84468C5.67864 10.4043 5.67864 10.4664 4.4144 10.7359C3.15015 11.0053 3.15015 11.9587 3.15015 12.0623C3.15015 12.1659 3.25377 13.3265 4.43512 13.3265C5.61647 13.3265 6.30041 12.6841 6.30041 11.482V6.22606C6.30041 6.08802 6.39766 5.97006 6.53295 5.94265L10.7609 5.08612C10.9407 5.0497 11.1087 5.18662 11.1087 5.37002V8.76696C11.1087 9.43017 10.9429 9.38872 9.74082 9.67888C8.53875 9.96903 8.5802 10.8809 8.5802 10.9639C8.5802 11.0468 8.6631 12.2281 9.86517 12.2281C11.0672 12.2281 11.7305 11.4198 11.7305 10.7566V2.83127C11.7305 2.56825 11.4886 2.37188 11.2312 2.42566L6.04136 3.50984C5.83004 3.55399 5.67864 3.74028 5.67864 3.95616Z" fill="white"/>
<defs>
<linearGradient id="paint0_linear" x1="8" y1="0" x2="8" y2="16" gradientUnits="userSpaceOnUse">
<stop stop-color="#FB5C74"/>
<stop offset="1" stop-color="#FA243C"/>
</linearGradient>
</defs>
</svg>
