<svg width="16" height="12" viewBox="0 0 16 12" fill="none" xmlns="http://www.w3.org/2000/svg">
<path d="M9.99999 6C9.99999 7.10457 9.10456 8 7.99999 8C6.89542 8 5.99999 7.10457 5.99999 6C5.99999 4.89543 6.89542 4 7.99999 4C9.10456 4 9.99999 4.89543 9.99999 6Z" fill="#C4C4C4"/>
<path fill-rule="evenodd" clip-rule="evenodd" d="M1.89507 6C2.3856 6.69868 3.16196 7.55436 4.12434 8.27451C5.27459 9.13524 6.61931 9.75 7.99999 9.75C9.38068 9.75 10.7254 9.13524 11.8756 8.27451C12.838 7.55436 13.6144 6.69868 14.1049 6C13.6144 5.30132 12.838 4.44564 11.8756 3.72549C10.7254 2.86476 9.38068 2.25 7.99999 2.25C6.61931 2.25 5.27459 2.86476 4.12434 3.72549C3.16196 4.44564 2.3856 5.30132 1.89507 6ZM3.22565 2.52451C4.5254 1.55191 6.18068 0.75 7.99999 0.75C9.81931 0.75 11.4746 1.55191 12.7743 2.52451C14.0757 3.49833 15.0921 4.69575 15.6431 5.61413L15.8746 6L15.6431 6.38587C15.0921 7.30425 14.0757 8.50167 12.7743 9.47549C11.4746 10.4481 9.81931 11.25 7.99999 11.25C6.18068 11.25 4.5254 10.4481 3.22565 9.47549C1.92427 8.50167 0.907901 7.30425 0.356874 6.38587L0.125351 6L0.356874 5.61413C0.907901 4.69575 1.92427 3.49833 3.22565 2.52451Z" fill="#C4C4C4"/>
</svg>
