<svg width="40" height="40" viewBox="0 0 40 40" fill="none" xmlns="http://www.w3.org/2000/svg">
<rect width="40" height="40" rx="20" fill="#F1F3F9"/>
<path d="M20.7405 14.2405C20.7405 13.8315 20.4089 13.5 20 13.5C19.591 13.5 19.2595 13.8315 19.2595 14.2405V19.2595H14.2405C13.8315 19.2595 13.5 19.591 13.5 20C13.5 20.4089 13.8315 20.7405 14.2405 20.7405H19.2595V25.7595C19.2595 26.1685 19.591 26.5 20 26.5C20.4089 26.5 20.7405 26.1685 20.7405 25.7595V20.7405H25.7595C26.1685 20.7405 26.5 20.4089 26.5 20C26.5 19.591 26.1685 19.2595 25.7595 19.2595H20.7405V14.2405Z" fill="#919295"/>
</svg>
