<svg width="18" height="18" viewBox="0 0 18 18" fill="none" xmlns="http://www.w3.org/2000/svg">
<path d="M16.6818 3.06467C16.3008 2.16644 15.5395 1.4846 14.6129 1.20711C13.9837 1.04979 13.3355 0.981511 12.6808 1.00439L5.31268 1.00428C4.66452 0.981512 4.01638 1.04979 3.39539 1.20485C2.45834 1.48528 1.69552 2.16976 1.32047 3.05784C1.07847 3.78287 0.971972 4.54627 1.00648 5.31823L1.00629 12.6901C0.971968 13.4537 1.07847 14.2171 1.31543 14.9288C1.69553 15.8302 2.45835 16.5147 3.38718 16.7929C4.01638 16.9502 4.66452 17.0185 5.31921 16.9956L12.6873 16.9957C13.3355 17.0185 13.9836 16.9502 14.6046 16.7951C15.5417 16.5147 16.3045 15.8302 16.6795 14.9422C16.9215 14.2171 17.028 13.4537 16.9935 12.6817L16.9937 5.30988C17.0279 4.54867 16.9222 3.78767 16.6818 3.06467Z" fill="white" stroke="#E5E5E5"/>
<path d="M8.85507 15.3098C11.6493 15.3098 13.9145 13.0474 13.9145 10.2566C13.9145 7.46577 11.6493 5.20337 8.85507 5.20337C6.06083 5.20337 3.79565 7.46577 3.79565 10.2566C3.79565 13.0474 6.06083 15.3098 8.85507 15.3098Z" fill="#FFCC00"/>
<path d="M11.3887 5.1058L11.3888 9.83314L11.3776 9.83687C11.3776 9.83888 11.3776 9.8409 11.3776 9.84292C11.3776 10.3053 11.344 10.7366 11.2813 10.9567C10.9798 12.0153 10.0045 12.7832 8.84788 12.7832C7.45076 12.7832 6.33301 11.6557 6.33301 10.2603C6.33301 8.86491 7.45076 7.73741 8.84788 7.73741C9.50617 7.73741 10.1057 7.98855 10.5558 8.40013C10.7028 8.5346 10.8339 8.68619 10.9458 8.85175C10.9148 8.70358 10.8842 8.51716 10.8842 8.35783V4.69412V2.67432L14.1768 3.682V5.96409L11.3887 5.1058Z" fill="#FF3333"/>
</svg>
