<svg width="16" height="16" viewBox="0 0 16 16" fill="none" xmlns="http://www.w3.org/2000/svg">
<path d="M8 0C3.58172 0 0 3.58172 0 8C0 12.4183 3.58172 16 8 16C12.4183 16 16 12.4183 16 8C16 3.58172 12.4183 0 8 0ZM11.4817 11.6102C11.38 11.7842 11.1969 11.8813 11.0089 11.8813C10.9151 11.8813 10.8202 11.8572 10.7334 11.8065C9.29574 10.9663 7.63496 10.8313 6.49459 10.866C5.23139 10.9044 4.30503 11.1538 4.29583 11.1563C4.00464 11.2359 3.70372 11.0645 3.62384 10.7734C3.544 10.4822 3.71476 10.1815 4.0058 10.1013C4.04755 10.0898 5.0444 9.81909 6.43061 9.77337C7.24713 9.74643 8.03319 9.80334 8.76664 9.94248C9.69562 10.1187 10.543 10.428 11.2854 10.8619C11.5463 11.0143 11.6341 11.3494 11.4817 11.6102ZM12.4988 9.49785C12.3783 9.70404 12.1614 9.81897 11.9387 9.81901C11.8276 9.81901 11.7151 9.79046 11.6123 9.73038C9.90948 8.73518 7.94216 8.57531 6.59142 8.61635C5.0951 8.66188 3.99779 8.95726 3.98691 8.96026C3.64206 9.05435 3.28555 8.85153 3.19093 8.50665C3.09635 8.16178 3.29864 7.8056 3.64337 7.71061C3.69283 7.69699 4.87361 7.37624 6.51562 7.3221C7.48287 7.29023 8.41394 7.35761 9.28272 7.52242C10.3831 7.73118 11.3869 8.09758 12.2662 8.61145C12.5753 8.79201 12.6794 9.18889 12.4988 9.49785ZM13.124 7.57723C12.9878 7.57723 12.8498 7.54221 12.7237 7.4685C8.67524 5.10254 3.42368 6.50911 3.37111 6.52362C2.94785 6.64024 2.5103 6.39166 2.39372 5.96844C2.2771 5.54522 2.52568 5.10763 2.9489 4.99105C3.00955 4.97432 4.4579 4.58092 6.47199 4.51451C7.65849 4.47545 8.8005 4.55806 9.86615 4.76021C11.2159 5.01627 12.4472 5.46568 13.5258 6.09602C13.9048 6.31751 14.0325 6.8043 13.811 7.1833C13.6632 7.43621 13.3972 7.57723 13.124 7.57723Z" fill="#2FD566"/>
</svg>
