<svg width="16" height="16" viewBox="0 0 16 16" fill="none" xmlns="http://www.w3.org/2000/svg">
<path d="M0 7.66667C0 4.05257 0 2.24551 1.12276 1.12276C2.24551 0 4.05257 0 7.66667 0H8.33333C11.9474 0 13.7545 0 14.8772 1.12276C16 2.24551 16 4.05257 16 7.66667V8.33333C16 11.9474 16 13.7545 14.8772 14.8772C13.7545 16 11.9474 16 8.33333 16H7.66667C4.05257 16 2.24551 16 1.12276 14.8772C0 13.7545 0 11.9474 0 8.33333L0 7.66667Z" fill="#2787F5"/>
<path fill-rule="evenodd" clip-rule="evenodd" d="M4.33363 5H3.1667C2.83329 5 2.7666 5.15693 2.7666 5.32993C2.7666 5.63897 3.16222 7.1716 4.60867 9.19863C5.57297 10.5829 6.93157 11.3333 8.16787 11.3333C8.90963 11.3333 9.0014 11.1667 9.0014 10.8796V9.83333C9.0014 9.5 9.07167 9.43347 9.30653 9.43347C9.47963 9.43347 9.77633 9.52 10.4687 10.1874C11.2599 10.9785 11.3903 11.3333 11.8354 11.3333H13.0023C13.3357 11.3333 13.5024 11.1667 13.4063 10.8378C13.301 10.51 12.9233 10.0343 12.422 9.47057C12.15 9.1492 11.742 8.80313 11.6184 8.63007C11.4453 8.4076 11.4948 8.3087 11.6184 8.11097C11.6184 8.11097 13.0401 6.10863 13.1885 5.42887C13.2627 5.18163 13.1885 5 12.8356 5H11.6687C11.372 5 11.2352 5.15693 11.161 5.32993C11.161 5.32993 10.5676 6.77607 9.7269 7.71543C9.4549 7.98733 9.33127 8.07387 9.1829 8.07387C9.10874 8.07387 9.00137 7.98733 9.00137 7.74017V5.42887C9.00137 5.1322 8.91527 5 8.66797 5H6.8342C6.6488 5 6.53727 5.13767 6.53727 5.26817C6.53727 5.54937 6.9576 5.61423 7.00093 6.40527V8.12333C7.00093 8.5 6.93287 8.5683 6.78453 8.5683C6.38893 8.5683 5.42664 7.1157 4.8559 5.45357C4.74407 5.1305 4.63187 5 4.33363 5Z" fill="white"/>
</svg>
