<svg width="20" height="20" viewBox="0 0 20 20" fill="none" xmlns="http://www.w3.org/2000/svg">
<g opacity="0.32">
<path d="M8.58341 9.99967C8.58341 9.67751 8.32225 9.41634 8.00008 9.41634C7.67792 9.41634 7.41675 9.67751 7.41675 9.99967C7.41675 10.3218 7.67792 10.583 8.00008 10.583C8.32225 10.583 8.58341 10.3218 8.58341 9.99967Z" stroke="black" stroke-linecap="round" stroke-linejoin="round"/>
<path d="M8.58341 5.91667C8.58341 5.5945 8.32225 5.33333 8.00008 5.33333C7.67792 5.33333 7.41675 5.5945 7.41675 5.91667C7.41675 6.23883 7.67792 6.5 8.00008 6.5C8.32225 6.5 8.58341 6.23883 8.58341 5.91667Z" stroke="black" stroke-linecap="round" stroke-linejoin="round"/>
<path d="M8.58341 14.0832C8.58341 13.761 8.32225 13.4998 8.00008 13.4998C7.67792 13.4998 7.41675 13.761 7.41675 14.0832C7.41675 14.4053 7.67792 14.6665 8.00008 14.6665C8.32225 14.6665 8.58341 14.4053 8.58341 14.0832Z" stroke="black" stroke-linecap="round" stroke-linejoin="round"/>
<path d="M12.5834 9.99967C12.5834 9.67751 12.3222 9.41634 12.0001 9.41634C11.6779 9.41634 11.4167 9.67751 11.4167 9.99967C11.4167 10.3218 11.6779 10.583 12.0001 10.583C12.3222 10.583 12.5834 10.3218 12.5834 9.99967Z" stroke="black" stroke-linecap="round" stroke-linejoin="round"/>
<path d="M12.5834 5.91667C12.5834 5.5945 12.3222 5.33333 12.0001 5.33333C11.6779 5.33333 11.4167 5.5945 11.4167 5.91667C11.4167 6.23883 11.6779 6.5 12.0001 6.5C12.3222 6.5 12.5834 6.23883 12.5834 5.91667Z" stroke="black" stroke-linecap="round" stroke-linejoin="round"/>
<path d="M12.5834 14.0832C12.5834 13.761 12.3222 13.4998 12.0001 13.4998C11.6779 13.4998 11.4167 13.761 11.4167 14.0832C11.4167 14.4053 11.6779 14.6665 12.0001 14.6665C12.3222 14.6665 12.5834 14.4053 12.5834 14.0832Z" stroke="black" stroke-linecap="round" stroke-linejoin="round"/>
</g>
</svg>
