<svg width="16" height="16" viewBox="0 0 16 16" fill="none" xmlns="http://www.w3.org/2000/svg">
<path d="M8.5 1C8.5 0.723858 8.27614 0.5 8 0.5C7.72386 0.5 7.5 0.723858 7.5 1V9.79289L5.35355 7.64645C5.15829 7.45118 4.84171 7.45118 4.64645 7.64645C4.45118 7.84171 4.45118 8.15829 4.64645 8.35355L7.64645 11.3536C7.84171 11.5488 8.15829 11.5488 8.35355 11.3536L11.3536 8.35355C11.5488 8.15829 11.5488 7.84171 11.3536 7.64645C11.1583 7.45118 10.8417 7.45118 10.6464 7.64645L8.5 9.79289V1Z" fill="black"/>
<path d="M4 3H6V4.5H4C3.72386 4.5 3.5 4.72386 3.5 5V13C3.5 13.2761 3.72386 13.5 4 13.5H12C12.2761 13.5 12.5 13.2761 12.5 13V5C12.5 4.72386 12.2761 4.5 12 4.5H10V3H12C13.1046 3 14 3.89543 14 5V13C14 14.1046 13.1046 15 12 15H4C2.89543 15 2 14.1046 2 13V5C2 3.89543 2.89543 3 4 3Z" fill="black"/>
</svg>
